G04 #@! TF.GenerationSoftware,KiCad,Pcbnew,6.0.8-f2edbf62ab~116~ubuntu22.04.1*
G04 #@! TF.CreationDate,2022-10-12T19:55:46+02:00*
G04 #@! TF.ProjectId,A1200FaStRamExpansion,41313230-3046-4615-9374-52616d457870,1.0*
G04 #@! TF.SameCoordinates,Original*
G04 #@! TF.FileFunction,Legend,Top*
G04 #@! TF.FilePolarity,Positive*
%FSLAX46Y46*%
G04 Gerber Fmt 4.6, Leading zero omitted, Abs format (unit mm)*
G04 Created by KiCad (PCBNEW 6.0.8-f2edbf62ab~116~ubuntu22.04.1) date 2022-10-12 19:55:46*
%MOMM*%
%LPD*%
G01*
G04 APERTURE LIST*
G04 Aperture macros list*
%AMRoundRect*
0 Rectangle with rounded corners*
0 $1 Rounding radius*
0 $2 $3 $4 $5 $6 $7 $8 $9 X,Y pos of 4 corners*
0 Add a 4 corners polygon primitive as box body*
4,1,4,$2,$3,$4,$5,$6,$7,$8,$9,$2,$3,0*
0 Add four circle primitives for the rounded corners*
1,1,$1+$1,$2,$3*
1,1,$1+$1,$4,$5*
1,1,$1+$1,$6,$7*
1,1,$1+$1,$8,$9*
0 Add four rect primitives between the rounded corners*
20,1,$1+$1,$2,$3,$4,$5,0*
20,1,$1+$1,$4,$5,$6,$7,0*
20,1,$1+$1,$6,$7,$8,$9,0*
20,1,$1+$1,$8,$9,$2,$3,0*%
%AMHorizOval*
0 Thick line with rounded ends*
0 $1 width*
0 $2 $3 position (X,Y) of the first rounded end (center of the circle)*
0 $4 $5 position (X,Y) of the second rounded end (center of the circle)*
0 Add line between two ends*
20,1,$1,$2,$3,$4,$5,0*
0 Add two circle primitives to create the rounded ends*
1,1,$1,$2,$3*
1,1,$1,$4,$5*%
G04 Aperture macros list end*
%ADD10C,0.140000*%
%ADD11C,0.150000*%
%ADD12C,0.120000*%
%ADD13C,0.100000*%
%ADD14C,0.010000*%
%ADD15C,0.300000*%
%ADD16RoundRect,0.300000X-0.512652X-0.159099X-0.159099X-0.512652X0.512652X0.159099X0.159099X0.512652X0*%
%ADD17RoundRect,0.300000X0.512652X0.159099X0.159099X0.512652X-0.512652X-0.159099X-0.159099X-0.512652X0*%
%ADD18RoundRect,0.050800X0.654000X-0.654000X0.654000X0.654000X-0.654000X0.654000X-0.654000X-0.654000X0*%
%ADD19C,1.409600*%
%ADD20RoundRect,0.187500X0.521491X-0.327037X-0.327037X0.521491X-0.521491X0.327037X0.327037X-0.521491X0*%
%ADD21RoundRect,0.187500X0.521491X0.327037X0.327037X0.521491X-0.521491X-0.327037X-0.327037X-0.521491X0*%
%ADD22RoundRect,0.050000X-0.477297X0.300520X0.300520X-0.477297X0.477297X-0.300520X-0.300520X0.477297X0*%
%ADD23RoundRect,0.200000X-0.512500X-0.150000X0.512500X-0.150000X0.512500X0.150000X-0.512500X0.150000X0*%
%ADD24RoundRect,0.050000X0.601041X-0.035355X-0.035355X0.601041X-0.601041X0.035355X0.035355X-0.601041X0*%
%ADD25RoundRect,0.050000X0.850000X0.850000X-0.850000X0.850000X-0.850000X-0.850000X0.850000X-0.850000X0*%
%ADD26O,1.800000X1.800000*%
%ADD27RoundRect,0.300000X0.159099X-0.512652X0.512652X-0.159099X-0.159099X0.512652X-0.512652X0.159099X0*%
%ADD28RoundRect,0.050000X1.202082X0.000000X0.000000X1.202082X-1.202082X0.000000X0.000000X-1.202082X0*%
%ADD29HorizOval,1.800000X0.000000X0.000000X0.000000X0.000000X0*%
%ADD30RoundRect,0.300000X0.132583X-0.503814X0.503814X-0.132583X-0.132583X0.503814X-0.503814X0.132583X0*%
G04 APERTURE END LIST*
D10*
X89076714Y-141022642D02*
X89376714Y-141922642D01*
X89676714Y-141022642D01*
X90448142Y-141922642D02*
X89933857Y-141922642D01*
X90191000Y-141922642D02*
X90191000Y-141022642D01*
X90105285Y-141151214D01*
X90019571Y-141236928D01*
X89933857Y-141279785D01*
X90833857Y-141836928D02*
X90876714Y-141879785D01*
X90833857Y-141922642D01*
X90791000Y-141879785D01*
X90833857Y-141836928D01*
X90833857Y-141922642D01*
X91433857Y-141022642D02*
X91519571Y-141022642D01*
X91605285Y-141065500D01*
X91648142Y-141108357D01*
X91691000Y-141194071D01*
X91733857Y-141365500D01*
X91733857Y-141579785D01*
X91691000Y-141751214D01*
X91648142Y-141836928D01*
X91605285Y-141879785D01*
X91519571Y-141922642D01*
X91433857Y-141922642D01*
X91348142Y-141879785D01*
X91305285Y-141836928D01*
X91262428Y-141751214D01*
X91219571Y-141579785D01*
X91219571Y-141365500D01*
X91262428Y-141194071D01*
X91305285Y-141108357D01*
X91348142Y-141065500D01*
X91433857Y-141022642D01*
X89505285Y-142900214D02*
X89205285Y-142900214D01*
X89205285Y-143371642D02*
X89205285Y-142471642D01*
X89633857Y-142471642D01*
X90405285Y-143371642D02*
X89976714Y-143371642D01*
X89976714Y-142471642D01*
X90662428Y-143114500D02*
X91091000Y-143114500D01*
X90576714Y-143371642D02*
X90876714Y-142471642D01*
X91176714Y-143371642D01*
X91991000Y-143285928D02*
X91948142Y-143328785D01*
X91819571Y-143371642D01*
X91733857Y-143371642D01*
X91605285Y-143328785D01*
X91519571Y-143243071D01*
X91476714Y-143157357D01*
X91433857Y-142985928D01*
X91433857Y-142857357D01*
X91476714Y-142685928D01*
X91519571Y-142600214D01*
X91605285Y-142514500D01*
X91733857Y-142471642D01*
X91819571Y-142471642D01*
X91948142Y-142514500D01*
X91991000Y-142557357D01*
X92548142Y-142471642D02*
X92719571Y-142471642D01*
X92805285Y-142514500D01*
X92891000Y-142600214D01*
X92933857Y-142771642D01*
X92933857Y-143071642D01*
X92891000Y-143243071D01*
X92805285Y-143328785D01*
X92719571Y-143371642D01*
X92548142Y-143371642D01*
X92462428Y-143328785D01*
X92376714Y-143243071D01*
X92333857Y-143071642D01*
X92333857Y-142771642D01*
X92376714Y-142600214D01*
X92462428Y-142514500D01*
X92548142Y-142471642D01*
X93962428Y-142557357D02*
X94005285Y-142514500D01*
X94091000Y-142471642D01*
X94305285Y-142471642D01*
X94391000Y-142514500D01*
X94433857Y-142557357D01*
X94476714Y-142643071D01*
X94476714Y-142728785D01*
X94433857Y-142857357D01*
X93919571Y-143371642D01*
X94476714Y-143371642D01*
X95033857Y-142471642D02*
X95119571Y-142471642D01*
X95205285Y-142514500D01*
X95248142Y-142557357D01*
X95291000Y-142643071D01*
X95333857Y-142814500D01*
X95333857Y-143028785D01*
X95291000Y-143200214D01*
X95248142Y-143285928D01*
X95205285Y-143328785D01*
X95119571Y-143371642D01*
X95033857Y-143371642D01*
X94948142Y-143328785D01*
X94905285Y-143285928D01*
X94862428Y-143200214D01*
X94819571Y-143028785D01*
X94819571Y-142814500D01*
X94862428Y-142643071D01*
X94905285Y-142557357D01*
X94948142Y-142514500D01*
X95033857Y-142471642D01*
X95676714Y-142557357D02*
X95719571Y-142514500D01*
X95805285Y-142471642D01*
X96019571Y-142471642D01*
X96105285Y-142514500D01*
X96148142Y-142557357D01*
X96191000Y-142643071D01*
X96191000Y-142728785D01*
X96148142Y-142857357D01*
X95633857Y-143371642D01*
X96191000Y-143371642D01*
X96748142Y-142471642D02*
X96833857Y-142471642D01*
X96919571Y-142514500D01*
X96962428Y-142557357D01*
X97005285Y-142643071D01*
X97048142Y-142814500D01*
X97048142Y-143028785D01*
X97005285Y-143200214D01*
X96962428Y-143285928D01*
X96919571Y-143328785D01*
X96833857Y-143371642D01*
X96748142Y-143371642D01*
X96662428Y-143328785D01*
X96619571Y-143285928D01*
X96576714Y-143200214D01*
X96533857Y-143028785D01*
X96533857Y-142814500D01*
X96576714Y-142643071D01*
X96619571Y-142557357D01*
X96662428Y-142514500D01*
X96748142Y-142471642D01*
D11*
X138684047Y-86145714D02*
X138684047Y-86812380D01*
X138445952Y-85764761D02*
X138207857Y-86479047D01*
X138826904Y-86479047D01*
X139207857Y-86812380D02*
X139207857Y-85812380D01*
X139541190Y-86526666D01*
X139874523Y-85812380D01*
X139874523Y-86812380D01*
X90622380Y-124981428D02*
X89622380Y-124981428D01*
X90622380Y-124552857D02*
X90098571Y-124552857D01*
X90003333Y-124600476D01*
X89955714Y-124695714D01*
X89955714Y-124838571D01*
X90003333Y-124933809D01*
X90050952Y-124981428D01*
X89955714Y-124219523D02*
X89955714Y-123838571D01*
X89622380Y-124076666D02*
X90479523Y-124076666D01*
X90574761Y-124029047D01*
X90622380Y-123933809D01*
X90622380Y-123838571D01*
X89955714Y-123648095D02*
X89955714Y-123267142D01*
X89622380Y-123505238D02*
X90479523Y-123505238D01*
X90574761Y-123457619D01*
X90622380Y-123362380D01*
X90622380Y-123267142D01*
X89955714Y-122933809D02*
X90955714Y-122933809D01*
X90003333Y-122933809D02*
X89955714Y-122838571D01*
X89955714Y-122648095D01*
X90003333Y-122552857D01*
X90050952Y-122505238D01*
X90146190Y-122457619D01*
X90431904Y-122457619D01*
X90527142Y-122505238D01*
X90574761Y-122552857D01*
X90622380Y-122648095D01*
X90622380Y-122838571D01*
X90574761Y-122933809D01*
X90574761Y-122076666D02*
X90622380Y-121981428D01*
X90622380Y-121790952D01*
X90574761Y-121695714D01*
X90479523Y-121648095D01*
X90431904Y-121648095D01*
X90336666Y-121695714D01*
X90289047Y-121790952D01*
X90289047Y-121933809D01*
X90241428Y-122029047D01*
X90146190Y-122076666D01*
X90098571Y-122076666D01*
X90003333Y-122029047D01*
X89955714Y-121933809D01*
X89955714Y-121790952D01*
X90003333Y-121695714D01*
X90527142Y-121219523D02*
X90574761Y-121171904D01*
X90622380Y-121219523D01*
X90574761Y-121267142D01*
X90527142Y-121219523D01*
X90622380Y-121219523D01*
X90003333Y-121219523D02*
X90050952Y-121171904D01*
X90098571Y-121219523D01*
X90050952Y-121267142D01*
X90003333Y-121219523D01*
X90098571Y-121219523D01*
X89574761Y-120029047D02*
X90860476Y-120886190D01*
X89574761Y-118981428D02*
X90860476Y-119838571D01*
X89955714Y-118219523D02*
X90765238Y-118219523D01*
X90860476Y-118267142D01*
X90908095Y-118314761D01*
X90955714Y-118410000D01*
X90955714Y-118552857D01*
X90908095Y-118648095D01*
X90574761Y-118219523D02*
X90622380Y-118314761D01*
X90622380Y-118505238D01*
X90574761Y-118600476D01*
X90527142Y-118648095D01*
X90431904Y-118695714D01*
X90146190Y-118695714D01*
X90050952Y-118648095D01*
X90003333Y-118600476D01*
X89955714Y-118505238D01*
X89955714Y-118314761D01*
X90003333Y-118219523D01*
X90622380Y-117743333D02*
X89955714Y-117743333D01*
X89622380Y-117743333D02*
X89670000Y-117790952D01*
X89717619Y-117743333D01*
X89670000Y-117695714D01*
X89622380Y-117743333D01*
X89717619Y-117743333D01*
X89955714Y-117410000D02*
X89955714Y-117029047D01*
X89622380Y-117267142D02*
X90479523Y-117267142D01*
X90574761Y-117219523D01*
X90622380Y-117124285D01*
X90622380Y-117029047D01*
X90622380Y-116695714D02*
X89622380Y-116695714D01*
X90622380Y-116267142D02*
X90098571Y-116267142D01*
X90003333Y-116314761D01*
X89955714Y-116410000D01*
X89955714Y-116552857D01*
X90003333Y-116648095D01*
X90050952Y-116695714D01*
X89955714Y-115362380D02*
X90622380Y-115362380D01*
X89955714Y-115790952D02*
X90479523Y-115790952D01*
X90574761Y-115743333D01*
X90622380Y-115648095D01*
X90622380Y-115505238D01*
X90574761Y-115410000D01*
X90527142Y-115362380D01*
X90622380Y-114886190D02*
X89622380Y-114886190D01*
X90003333Y-114886190D02*
X89955714Y-114790952D01*
X89955714Y-114600476D01*
X90003333Y-114505238D01*
X90050952Y-114457619D01*
X90146190Y-114410000D01*
X90431904Y-114410000D01*
X90527142Y-114457619D01*
X90574761Y-114505238D01*
X90622380Y-114600476D01*
X90622380Y-114790952D01*
X90574761Y-114886190D01*
X90527142Y-113981428D02*
X90574761Y-113933809D01*
X90622380Y-113981428D01*
X90574761Y-114029047D01*
X90527142Y-113981428D01*
X90622380Y-113981428D01*
X90574761Y-113076666D02*
X90622380Y-113171904D01*
X90622380Y-113362380D01*
X90574761Y-113457619D01*
X90527142Y-113505238D01*
X90431904Y-113552857D01*
X90146190Y-113552857D01*
X90050952Y-113505238D01*
X90003333Y-113457619D01*
X89955714Y-113362380D01*
X89955714Y-113171904D01*
X90003333Y-113076666D01*
X90622380Y-112505238D02*
X90574761Y-112600476D01*
X90527142Y-112648095D01*
X90431904Y-112695714D01*
X90146190Y-112695714D01*
X90050952Y-112648095D01*
X90003333Y-112600476D01*
X89955714Y-112505238D01*
X89955714Y-112362380D01*
X90003333Y-112267142D01*
X90050952Y-112219523D01*
X90146190Y-112171904D01*
X90431904Y-112171904D01*
X90527142Y-112219523D01*
X90574761Y-112267142D01*
X90622380Y-112362380D01*
X90622380Y-112505238D01*
X90622380Y-111743333D02*
X89955714Y-111743333D01*
X90050952Y-111743333D02*
X90003333Y-111695714D01*
X89955714Y-111600476D01*
X89955714Y-111457619D01*
X90003333Y-111362380D01*
X90098571Y-111314761D01*
X90622380Y-111314761D01*
X90098571Y-111314761D02*
X90003333Y-111267142D01*
X89955714Y-111171904D01*
X89955714Y-111029047D01*
X90003333Y-110933809D01*
X90098571Y-110886190D01*
X90622380Y-110886190D01*
X89574761Y-109695714D02*
X90860476Y-110552857D01*
X89955714Y-109505238D02*
X89955714Y-109124285D01*
X90622380Y-109362380D02*
X89765238Y-109362380D01*
X89670000Y-109314761D01*
X89622380Y-109219523D01*
X89622380Y-109124285D01*
X90622380Y-108267142D02*
X90622380Y-108838571D01*
X90622380Y-108552857D02*
X89622380Y-108552857D01*
X89765238Y-108648095D01*
X89860476Y-108743333D01*
X89908095Y-108838571D01*
X90622380Y-107410000D02*
X90098571Y-107410000D01*
X90003333Y-107457619D01*
X89955714Y-107552857D01*
X89955714Y-107743333D01*
X90003333Y-107838571D01*
X90574761Y-107410000D02*
X90622380Y-107505238D01*
X90622380Y-107743333D01*
X90574761Y-107838571D01*
X90479523Y-107886190D01*
X90384285Y-107886190D01*
X90289047Y-107838571D01*
X90241428Y-107743333D01*
X90241428Y-107505238D01*
X90193809Y-107410000D01*
X90574761Y-106505238D02*
X90622380Y-106600476D01*
X90622380Y-106790952D01*
X90574761Y-106886190D01*
X90527142Y-106933809D01*
X90431904Y-106981428D01*
X90146190Y-106981428D01*
X90050952Y-106933809D01*
X90003333Y-106886190D01*
X89955714Y-106790952D01*
X89955714Y-106600476D01*
X90003333Y-106505238D01*
X89622380Y-105886190D02*
X89622380Y-105790952D01*
X89670000Y-105695714D01*
X89717619Y-105648095D01*
X89812857Y-105600476D01*
X90003333Y-105552857D01*
X90241428Y-105552857D01*
X90431904Y-105600476D01*
X90527142Y-105648095D01*
X90574761Y-105695714D01*
X90622380Y-105790952D01*
X90622380Y-105886190D01*
X90574761Y-105981428D01*
X90527142Y-106029047D01*
X90431904Y-106076666D01*
X90241428Y-106124285D01*
X90003333Y-106124285D01*
X89812857Y-106076666D01*
X89717619Y-106029047D01*
X89670000Y-105981428D01*
X89622380Y-105886190D01*
X89574761Y-104410000D02*
X90860476Y-105267142D01*
X90336666Y-104124285D02*
X90336666Y-103648095D01*
X90622380Y-104219523D02*
X89622380Y-103886190D01*
X90622380Y-103552857D01*
X90622380Y-102695714D02*
X90622380Y-103267142D01*
X90622380Y-102981428D02*
X89622380Y-102981428D01*
X89765238Y-103076666D01*
X89860476Y-103171904D01*
X89908095Y-103267142D01*
X89717619Y-102314761D02*
X89670000Y-102267142D01*
X89622380Y-102171904D01*
X89622380Y-101933809D01*
X89670000Y-101838571D01*
X89717619Y-101790952D01*
X89812857Y-101743333D01*
X89908095Y-101743333D01*
X90050952Y-101790952D01*
X90622380Y-102362380D01*
X90622380Y-101743333D01*
X89622380Y-101124285D02*
X89622380Y-101029047D01*
X89670000Y-100933809D01*
X89717619Y-100886190D01*
X89812857Y-100838571D01*
X90003333Y-100790952D01*
X90241428Y-100790952D01*
X90431904Y-100838571D01*
X90527142Y-100886190D01*
X90574761Y-100933809D01*
X90622380Y-101029047D01*
X90622380Y-101124285D01*
X90574761Y-101219523D01*
X90527142Y-101267142D01*
X90431904Y-101314761D01*
X90241428Y-101362380D01*
X90003333Y-101362380D01*
X89812857Y-101314761D01*
X89717619Y-101267142D01*
X89670000Y-101219523D01*
X89622380Y-101124285D01*
X89622380Y-100171904D02*
X89622380Y-100076666D01*
X89670000Y-99981428D01*
X89717619Y-99933809D01*
X89812857Y-99886190D01*
X90003333Y-99838571D01*
X90241428Y-99838571D01*
X90431904Y-99886190D01*
X90527142Y-99933809D01*
X90574761Y-99981428D01*
X90622380Y-100076666D01*
X90622380Y-100171904D01*
X90574761Y-100267142D01*
X90527142Y-100314761D01*
X90431904Y-100362380D01*
X90241428Y-100410000D01*
X90003333Y-100410000D01*
X89812857Y-100362380D01*
X89717619Y-100314761D01*
X89670000Y-100267142D01*
X89622380Y-100171904D01*
X90098571Y-99076666D02*
X90098571Y-99410000D01*
X90622380Y-99410000D02*
X89622380Y-99410000D01*
X89622380Y-98933809D01*
X90622380Y-98124285D02*
X90098571Y-98124285D01*
X90003333Y-98171904D01*
X89955714Y-98267142D01*
X89955714Y-98457619D01*
X90003333Y-98552857D01*
X90574761Y-98124285D02*
X90622380Y-98219523D01*
X90622380Y-98457619D01*
X90574761Y-98552857D01*
X90479523Y-98600476D01*
X90384285Y-98600476D01*
X90289047Y-98552857D01*
X90241428Y-98457619D01*
X90241428Y-98219523D01*
X90193809Y-98124285D01*
X90574761Y-97695714D02*
X90622380Y-97552857D01*
X90622380Y-97314761D01*
X90574761Y-97219523D01*
X90527142Y-97171904D01*
X90431904Y-97124285D01*
X90336666Y-97124285D01*
X90241428Y-97171904D01*
X90193809Y-97219523D01*
X90146190Y-97314761D01*
X90098571Y-97505238D01*
X90050952Y-97600476D01*
X90003333Y-97648095D01*
X89908095Y-97695714D01*
X89812857Y-97695714D01*
X89717619Y-97648095D01*
X89670000Y-97600476D01*
X89622380Y-97505238D01*
X89622380Y-97267142D01*
X89670000Y-97124285D01*
X89955714Y-96838571D02*
X89955714Y-96457619D01*
X89622380Y-96695714D02*
X90479523Y-96695714D01*
X90574761Y-96648095D01*
X90622380Y-96552857D01*
X90622380Y-96457619D01*
X90622380Y-95552857D02*
X90146190Y-95886190D01*
X90622380Y-96124285D02*
X89622380Y-96124285D01*
X89622380Y-95743333D01*
X89670000Y-95648095D01*
X89717619Y-95600476D01*
X89812857Y-95552857D01*
X89955714Y-95552857D01*
X90050952Y-95600476D01*
X90098571Y-95648095D01*
X90146190Y-95743333D01*
X90146190Y-96124285D01*
X90622380Y-94695714D02*
X90098571Y-94695714D01*
X90003333Y-94743333D01*
X89955714Y-94838571D01*
X89955714Y-95029047D01*
X90003333Y-95124285D01*
X90574761Y-94695714D02*
X90622380Y-94790952D01*
X90622380Y-95029047D01*
X90574761Y-95124285D01*
X90479523Y-95171904D01*
X90384285Y-95171904D01*
X90289047Y-95124285D01*
X90241428Y-95029047D01*
X90241428Y-94790952D01*
X90193809Y-94695714D01*
X90622380Y-94219523D02*
X89955714Y-94219523D01*
X90050952Y-94219523D02*
X90003333Y-94171904D01*
X89955714Y-94076666D01*
X89955714Y-93933809D01*
X90003333Y-93838571D01*
X90098571Y-93790952D01*
X90622380Y-93790952D01*
X90098571Y-93790952D02*
X90003333Y-93743333D01*
X89955714Y-93648095D01*
X89955714Y-93505238D01*
X90003333Y-93410000D01*
X90098571Y-93362380D01*
X90622380Y-93362380D01*
X90098571Y-92886190D02*
X90098571Y-92552857D01*
X90622380Y-92410000D02*
X90622380Y-92886190D01*
X89622380Y-92886190D01*
X89622380Y-92410000D01*
X90622380Y-92076666D02*
X89955714Y-91552857D01*
X89955714Y-92076666D02*
X90622380Y-91552857D01*
X89955714Y-91171904D02*
X90955714Y-91171904D01*
X90003333Y-91171904D02*
X89955714Y-91076666D01*
X89955714Y-90886190D01*
X90003333Y-90790952D01*
X90050952Y-90743333D01*
X90146190Y-90695714D01*
X90431904Y-90695714D01*
X90527142Y-90743333D01*
X90574761Y-90790952D01*
X90622380Y-90886190D01*
X90622380Y-91076666D01*
X90574761Y-91171904D01*
X90622380Y-89838571D02*
X90098571Y-89838571D01*
X90003333Y-89886190D01*
X89955714Y-89981428D01*
X89955714Y-90171904D01*
X90003333Y-90267142D01*
X90574761Y-89838571D02*
X90622380Y-89933809D01*
X90622380Y-90171904D01*
X90574761Y-90267142D01*
X90479523Y-90314761D01*
X90384285Y-90314761D01*
X90289047Y-90267142D01*
X90241428Y-90171904D01*
X90241428Y-89933809D01*
X90193809Y-89838571D01*
X89955714Y-89362380D02*
X90622380Y-89362380D01*
X90050952Y-89362380D02*
X90003333Y-89314761D01*
X89955714Y-89219523D01*
X89955714Y-89076666D01*
X90003333Y-88981428D01*
X90098571Y-88933809D01*
X90622380Y-88933809D01*
X90574761Y-88505238D02*
X90622380Y-88410000D01*
X90622380Y-88219523D01*
X90574761Y-88124285D01*
X90479523Y-88076666D01*
X90431904Y-88076666D01*
X90336666Y-88124285D01*
X90289047Y-88219523D01*
X90289047Y-88362380D01*
X90241428Y-88457619D01*
X90146190Y-88505238D01*
X90098571Y-88505238D01*
X90003333Y-88457619D01*
X89955714Y-88362380D01*
X89955714Y-88219523D01*
X90003333Y-88124285D01*
X90622380Y-87648095D02*
X89955714Y-87648095D01*
X89622380Y-87648095D02*
X89670000Y-87695714D01*
X89717619Y-87648095D01*
X89670000Y-87600476D01*
X89622380Y-87648095D01*
X89717619Y-87648095D01*
X90622380Y-87029047D02*
X90574761Y-87124285D01*
X90527142Y-87171904D01*
X90431904Y-87219523D01*
X90146190Y-87219523D01*
X90050952Y-87171904D01*
X90003333Y-87124285D01*
X89955714Y-87029047D01*
X89955714Y-86886190D01*
X90003333Y-86790952D01*
X90050952Y-86743333D01*
X90146190Y-86695714D01*
X90431904Y-86695714D01*
X90527142Y-86743333D01*
X90574761Y-86790952D01*
X90622380Y-86886190D01*
X90622380Y-87029047D01*
X89955714Y-86267142D02*
X90622380Y-86267142D01*
X90050952Y-86267142D02*
X90003333Y-86219523D01*
X89955714Y-86124285D01*
X89955714Y-85981428D01*
X90003333Y-85886190D01*
X90098571Y-85838571D01*
X90622380Y-85838571D01*
X119393115Y-77756086D02*
X119460458Y-77756086D01*
X119595145Y-77823430D01*
X119662489Y-77890774D01*
X119729832Y-78025461D01*
X119729832Y-78160148D01*
X119696161Y-78261163D01*
X119595145Y-78429522D01*
X119494130Y-78530537D01*
X119325771Y-78631552D01*
X119224756Y-78665224D01*
X119090069Y-78665224D01*
X118955382Y-78597880D01*
X118888038Y-78530537D01*
X118820695Y-78395850D01*
X118820695Y-78328506D01*
X118551321Y-78059132D02*
X118483977Y-78059132D01*
X118382962Y-78025461D01*
X118214603Y-77857102D01*
X118180932Y-77756086D01*
X118180932Y-77688743D01*
X118214603Y-77587728D01*
X118281947Y-77520384D01*
X118416634Y-77453041D01*
X119224756Y-77453041D01*
X118787023Y-77015308D01*
X119266115Y-150463586D02*
X119333458Y-150463586D01*
X119468145Y-150530930D01*
X119535489Y-150598274D01*
X119602832Y-150732961D01*
X119602832Y-150867648D01*
X119569161Y-150968663D01*
X119468145Y-151137022D01*
X119367130Y-151238037D01*
X119198771Y-151339052D01*
X119097756Y-151372724D01*
X118963069Y-151372724D01*
X118828382Y-151305380D01*
X118761038Y-151238037D01*
X118693695Y-151103350D01*
X118693695Y-151036006D01*
X118020260Y-150497258D02*
X118154947Y-150631945D01*
X118255962Y-150665617D01*
X118323306Y-150665617D01*
X118491664Y-150631945D01*
X118660023Y-150530930D01*
X118929397Y-150261556D01*
X118963069Y-150160541D01*
X118963069Y-150093197D01*
X118929397Y-149992182D01*
X118794710Y-149857495D01*
X118693695Y-149823823D01*
X118626351Y-149823823D01*
X118525336Y-149857495D01*
X118356977Y-150025854D01*
X118323306Y-150126869D01*
X118323306Y-150194212D01*
X118356977Y-150295228D01*
X118491664Y-150429915D01*
X118592680Y-150463586D01*
X118660023Y-150463586D01*
X118761038Y-150429915D01*
X140153106Y-61797030D02*
X140220450Y-61797030D01*
X140355137Y-61864374D01*
X140422480Y-61931717D01*
X140489824Y-62066404D01*
X140489824Y-62201091D01*
X140456152Y-62302106D01*
X140355137Y-62470465D01*
X140254122Y-62571480D01*
X140085763Y-62672496D01*
X139984748Y-62706167D01*
X139850061Y-62706167D01*
X139715374Y-62638824D01*
X139648030Y-62571480D01*
X139580687Y-62436793D01*
X139580687Y-62369450D01*
X139547015Y-61056251D02*
X139951076Y-61460312D01*
X139749045Y-61258282D02*
X139041938Y-61965389D01*
X139210297Y-61931717D01*
X139344984Y-61931717D01*
X139446000Y-61965389D01*
X138873580Y-60382816D02*
X139277641Y-60786877D01*
X139075610Y-60584847D02*
X138368503Y-61291954D01*
X138536862Y-61258282D01*
X138671549Y-61258282D01*
X138772564Y-61291954D01*
X129574287Y-75973208D02*
X130146707Y-75400788D01*
X130180379Y-75299773D01*
X130180379Y-75232429D01*
X130146707Y-75131414D01*
X130012020Y-74996727D01*
X129911005Y-74963055D01*
X129843661Y-74963055D01*
X129742646Y-74996727D01*
X129170226Y-75569147D01*
X129170226Y-74154933D02*
X129574287Y-74558994D01*
X129372257Y-74356964D02*
X128665150Y-75064070D01*
X128833509Y-75030399D01*
X128968196Y-75030399D01*
X129069211Y-75064070D01*
X113051269Y-64556226D02*
X113623689Y-63983806D01*
X113657361Y-63882791D01*
X113657361Y-63815447D01*
X113623689Y-63714432D01*
X113489002Y-63579745D01*
X113387987Y-63546073D01*
X113320643Y-63546073D01*
X113219628Y-63579745D01*
X112647208Y-64152165D01*
X112377834Y-63882791D02*
X111940102Y-63445058D01*
X112445178Y-63411386D01*
X112344163Y-63310371D01*
X112310491Y-63209356D01*
X112310491Y-63142012D01*
X112344163Y-63040997D01*
X112512521Y-62872638D01*
X112613537Y-62838966D01*
X112680880Y-62838966D01*
X112781895Y-62872638D01*
X112983926Y-63074669D01*
X113017598Y-63175684D01*
X113017598Y-63243027D01*
X113051269Y-119801226D02*
X113623689Y-119228806D01*
X113657361Y-119127791D01*
X113657361Y-119060447D01*
X113623689Y-118959432D01*
X113489002Y-118824745D01*
X113387987Y-118791073D01*
X113320643Y-118791073D01*
X113219628Y-118824745D01*
X112647208Y-119397165D01*
X112243147Y-118521699D02*
X112714552Y-118050295D01*
X112142132Y-118959432D02*
X112815567Y-118622714D01*
X112377834Y-118184982D01*
X113051269Y-82971226D02*
X113623689Y-82398806D01*
X113657361Y-82297791D01*
X113657361Y-82230447D01*
X113623689Y-82129432D01*
X113489002Y-81994745D01*
X113387987Y-81961073D01*
X113320643Y-81961073D01*
X113219628Y-81994745D01*
X112647208Y-82567165D01*
X111973773Y-81893730D02*
X112310491Y-82230447D01*
X112680880Y-81927401D01*
X112613537Y-81927401D01*
X112512521Y-81893730D01*
X112344163Y-81725371D01*
X112310491Y-81624356D01*
X112310491Y-81557012D01*
X112344163Y-81455997D01*
X112512521Y-81287638D01*
X112613537Y-81253966D01*
X112680880Y-81253966D01*
X112781895Y-81287638D01*
X112950254Y-81455997D01*
X112983926Y-81557012D01*
X112983926Y-81624356D01*
X113051269Y-138216226D02*
X113623689Y-137643806D01*
X113657361Y-137542791D01*
X113657361Y-137475447D01*
X113623689Y-137374432D01*
X113489002Y-137239745D01*
X113387987Y-137206073D01*
X113320643Y-137206073D01*
X113219628Y-137239745D01*
X112647208Y-137812165D01*
X112007445Y-137172401D02*
X112142132Y-137307088D01*
X112243147Y-137340760D01*
X112310491Y-137340760D01*
X112478850Y-137307088D01*
X112647208Y-137206073D01*
X112916582Y-136936699D01*
X112950254Y-136835684D01*
X112950254Y-136768340D01*
X112916582Y-136667325D01*
X112781895Y-136532638D01*
X112680880Y-136498966D01*
X112613537Y-136498966D01*
X112512521Y-136532638D01*
X112344163Y-136700997D01*
X112310491Y-136802012D01*
X112310491Y-136869356D01*
X112344163Y-136970371D01*
X112478850Y-137105058D01*
X112579865Y-137138730D01*
X112647208Y-137138730D01*
X112748224Y-137105058D01*
X113051269Y-101386226D02*
X113623689Y-100813806D01*
X113657361Y-100712791D01*
X113657361Y-100645447D01*
X113623689Y-100544432D01*
X113489002Y-100409745D01*
X113387987Y-100376073D01*
X113320643Y-100376073D01*
X113219628Y-100409745D01*
X112647208Y-100982165D01*
X112377834Y-100712791D02*
X111906430Y-100241386D01*
X112916582Y-99837325D01*
X119329615Y-114586086D02*
X119396958Y-114586086D01*
X119531645Y-114653430D01*
X119598989Y-114720774D01*
X119666332Y-114855461D01*
X119666332Y-114990148D01*
X119632661Y-115091163D01*
X119531645Y-115259522D01*
X119430630Y-115360537D01*
X119262271Y-115461552D01*
X119161256Y-115495224D01*
X119026569Y-115495224D01*
X118891882Y-115427880D01*
X118824538Y-115360537D01*
X118757195Y-115225850D01*
X118757195Y-115158506D01*
X118319462Y-114384056D02*
X118790867Y-113912651D01*
X118218447Y-114821789D02*
X118891882Y-114485071D01*
X118454149Y-114047338D01*
X119329615Y-133001086D02*
X119396958Y-133001086D01*
X119531645Y-133068430D01*
X119598989Y-133135774D01*
X119666332Y-133270461D01*
X119666332Y-133405148D01*
X119632661Y-133506163D01*
X119531645Y-133674522D01*
X119430630Y-133775537D01*
X119262271Y-133876552D01*
X119161256Y-133910224D01*
X119026569Y-133910224D01*
X118891882Y-133842880D01*
X118824538Y-133775537D01*
X118757195Y-133640850D01*
X118757195Y-133573506D01*
X118050088Y-133001086D02*
X118386806Y-133337804D01*
X118757195Y-133034758D01*
X118689851Y-133034758D01*
X118588836Y-133001086D01*
X118420477Y-132832728D01*
X118386806Y-132731712D01*
X118386806Y-132664369D01*
X118420477Y-132563354D01*
X118588836Y-132394995D01*
X118689851Y-132361323D01*
X118757195Y-132361323D01*
X118858210Y-132394995D01*
X119026569Y-132563354D01*
X119060241Y-132664369D01*
X119060241Y-132731712D01*
X119329615Y-96171086D02*
X119396958Y-96171086D01*
X119531645Y-96238430D01*
X119598989Y-96305774D01*
X119666332Y-96440461D01*
X119666332Y-96575148D01*
X119632661Y-96676163D01*
X119531645Y-96844522D01*
X119430630Y-96945537D01*
X119262271Y-97046552D01*
X119161256Y-97080224D01*
X119026569Y-97080224D01*
X118891882Y-97012880D01*
X118824538Y-96945537D01*
X118757195Y-96810850D01*
X118757195Y-96743506D01*
X118454149Y-96575148D02*
X118016416Y-96137415D01*
X118521493Y-96103743D01*
X118420477Y-96002728D01*
X118386806Y-95901712D01*
X118386806Y-95834369D01*
X118420477Y-95733354D01*
X118588836Y-95564995D01*
X118689851Y-95531323D01*
X118757195Y-95531323D01*
X118858210Y-95564995D01*
X119060241Y-95767025D01*
X119093913Y-95868041D01*
X119093913Y-95935384D01*
X132413095Y-86383880D02*
X132413095Y-87193404D01*
X132460714Y-87288642D01*
X132508333Y-87336261D01*
X132603571Y-87383880D01*
X132794047Y-87383880D01*
X132889285Y-87336261D01*
X132936904Y-87288642D01*
X132984523Y-87193404D01*
X132984523Y-86383880D01*
X133413095Y-86479119D02*
X133460714Y-86431500D01*
X133555952Y-86383880D01*
X133794047Y-86383880D01*
X133889285Y-86431500D01*
X133936904Y-86479119D01*
X133984523Y-86574357D01*
X133984523Y-86669595D01*
X133936904Y-86812452D01*
X133365476Y-87383880D01*
X133984523Y-87383880D01*
X128005389Y-85590312D02*
X128072732Y-85590312D01*
X128207419Y-85657656D01*
X128274763Y-85725000D01*
X128342106Y-85859687D01*
X128342106Y-85994374D01*
X128308435Y-86095389D01*
X128207419Y-86263748D01*
X128106404Y-86364763D01*
X127938045Y-86465778D01*
X127837030Y-86499450D01*
X127702343Y-86499450D01*
X127567656Y-86432106D01*
X127500312Y-86364763D01*
X127432969Y-86230076D01*
X127432969Y-86162732D01*
X127399297Y-84849534D02*
X127803358Y-85253595D01*
X127601328Y-85051564D02*
X126894221Y-85758671D01*
X127062580Y-85725000D01*
X127197267Y-85725000D01*
X127298282Y-85758671D01*
X129040606Y-77862530D02*
X129107950Y-77862530D01*
X129242637Y-77929874D01*
X129309980Y-77997217D01*
X129377324Y-78131904D01*
X129377324Y-78266591D01*
X129343652Y-78367606D01*
X129242637Y-78535965D01*
X129141622Y-78636980D01*
X128973263Y-78737996D01*
X128872248Y-78771667D01*
X128737561Y-78771667D01*
X128602874Y-78704324D01*
X128535530Y-78636980D01*
X128468187Y-78502293D01*
X128468187Y-78434950D01*
X128434515Y-77121751D02*
X128838576Y-77525812D01*
X128636545Y-77323782D02*
X127929438Y-78030889D01*
X128097797Y-77997217D01*
X128232484Y-77997217D01*
X128333500Y-78030889D01*
X127491706Y-77593156D02*
X127053973Y-77155423D01*
X127559049Y-77121751D01*
X127458034Y-77020736D01*
X127424362Y-76919721D01*
X127424362Y-76852377D01*
X127458034Y-76751362D01*
X127626393Y-76583003D01*
X127727408Y-76549332D01*
X127794751Y-76549332D01*
X127895767Y-76583003D01*
X128097797Y-76785034D01*
X128131469Y-76886049D01*
X128131469Y-76953393D01*
X137156745Y-79708217D02*
X137224089Y-79708217D01*
X137358776Y-79775561D01*
X137426119Y-79842904D01*
X137493463Y-79977591D01*
X137493463Y-80112278D01*
X137459791Y-80213293D01*
X137358776Y-80381652D01*
X137257761Y-80482667D01*
X137089402Y-80583683D01*
X136988387Y-80617354D01*
X136853700Y-80617354D01*
X136719013Y-80550011D01*
X136651669Y-80482667D01*
X136584326Y-80347980D01*
X136584326Y-80280637D01*
X136550654Y-78967438D02*
X136954715Y-79371499D01*
X136752684Y-79169469D02*
X136045577Y-79876576D01*
X136213936Y-79842904D01*
X136348623Y-79842904D01*
X136449639Y-79876576D01*
X135405814Y-79236812D02*
X135338471Y-79169469D01*
X135304799Y-79068454D01*
X135304799Y-79001110D01*
X135338471Y-78900095D01*
X135439486Y-78731736D01*
X135607845Y-78563377D01*
X135776203Y-78462362D01*
X135877219Y-78428690D01*
X135944562Y-78428690D01*
X136045577Y-78462362D01*
X136112921Y-78529706D01*
X136146593Y-78630721D01*
X136146593Y-78698064D01*
X136112921Y-78799080D01*
X136011906Y-78967438D01*
X135843547Y-79135797D01*
X135675188Y-79236812D01*
X135574173Y-79270484D01*
X135506829Y-79270484D01*
X135405814Y-79236812D01*
X127051969Y-65032605D02*
X127051969Y-65099949D01*
X126984625Y-65234636D01*
X126917282Y-65301979D01*
X126782595Y-65369323D01*
X126647908Y-65369323D01*
X126546893Y-65335651D01*
X126378534Y-65234636D01*
X126277519Y-65133621D01*
X126176503Y-64965262D01*
X126142832Y-64864247D01*
X126142832Y-64729560D01*
X126210175Y-64594873D01*
X126277519Y-64527529D01*
X126412206Y-64460186D01*
X126479549Y-64460186D01*
X127792748Y-64426514D02*
X127388687Y-64830575D01*
X127590717Y-64628544D02*
X126883610Y-63921437D01*
X126917282Y-64089796D01*
X126917282Y-64224483D01*
X126883610Y-64325499D01*
X127422358Y-63517376D02*
X127422358Y-63450033D01*
X127456030Y-63349018D01*
X127624389Y-63180659D01*
X127725404Y-63146987D01*
X127792748Y-63146987D01*
X127893763Y-63180659D01*
X127961106Y-63248002D01*
X128028450Y-63382689D01*
X128028450Y-64190811D01*
X128466183Y-63753079D01*
X139370304Y-79916006D02*
X138797884Y-79814991D01*
X138966243Y-80320067D02*
X138259136Y-79612961D01*
X138528510Y-79343586D01*
X138629525Y-79309915D01*
X138696869Y-79309915D01*
X138797884Y-79343586D01*
X138898899Y-79444602D01*
X138932571Y-79545617D01*
X138932571Y-79612961D01*
X138898899Y-79713976D01*
X138629525Y-79983350D01*
X140043739Y-79242571D02*
X139639678Y-79646632D01*
X139841709Y-79444602D02*
X139134602Y-78737495D01*
X139168274Y-78905854D01*
X139168274Y-79040541D01*
X139134602Y-79141556D01*
D12*
X118190990Y-78353043D02*
X118560457Y-78722510D01*
X117151543Y-79392490D02*
X117521010Y-79761957D01*
X117024543Y-152099990D02*
X117394010Y-152469457D01*
X118063990Y-151060543D02*
X118433457Y-151430010D01*
X142436457Y-63546010D02*
X142066990Y-63176543D01*
X141397010Y-64585457D02*
X141027543Y-64215990D01*
X87465000Y-155695000D02*
X87465000Y-55125000D01*
X87465000Y-55125000D02*
X78740000Y-55125000D01*
X87465000Y-155695000D02*
X78740000Y-155695000D01*
X127393369Y-69850000D02*
X127799955Y-69443414D01*
X135026586Y-76670045D02*
X135938754Y-77582213D01*
X134620000Y-77076631D02*
X135026586Y-76670045D01*
X141846631Y-69850000D02*
X141440045Y-70256586D01*
X127799955Y-70256586D02*
X127393369Y-69850000D01*
X141440045Y-69443414D02*
X141846631Y-69850000D01*
X135026586Y-63029955D02*
X134620000Y-62623369D01*
X134213414Y-76670045D02*
X134620000Y-77076631D01*
X134620000Y-62623369D02*
X134213414Y-63029955D01*
D13*
X118782876Y-70757889D02*
X105065004Y-57040017D01*
D12*
X97117124Y-66402111D02*
X110127889Y-79412876D01*
X97117124Y-121647111D02*
X110127889Y-134657876D01*
D13*
X118782876Y-126002889D02*
X105065004Y-112285017D01*
D12*
X97117124Y-84817111D02*
X110127889Y-97827876D01*
D13*
X118782876Y-89172889D02*
X105065004Y-75455017D01*
D12*
X97117124Y-140062111D02*
X110127889Y-153072876D01*
D13*
X118782876Y-144417889D02*
X105065004Y-130700017D01*
X118782876Y-107587889D02*
X105065004Y-93870017D01*
D12*
X97117124Y-103232111D02*
X110127889Y-116242876D01*
X118127490Y-115183043D02*
X118496957Y-115552510D01*
X117088043Y-116222490D02*
X117457510Y-116591957D01*
X118127490Y-133598043D02*
X118496957Y-133967510D01*
X117088043Y-134637490D02*
X117457510Y-135006957D01*
X118127490Y-96768043D02*
X118496957Y-97137510D01*
X117088043Y-97807490D02*
X117457510Y-98176957D01*
X133175000Y-86015000D02*
X133975000Y-86015000D01*
X133175000Y-82895000D02*
X131375000Y-82895000D01*
X133175000Y-86015000D02*
X132375000Y-86015000D01*
X133175000Y-82895000D02*
X133975000Y-82895000D01*
X131507615Y-83630570D02*
X133034966Y-85157920D01*
X133742073Y-81396112D02*
X134774448Y-82428488D01*
X131507615Y-83630570D02*
X132165224Y-82972960D01*
X133742073Y-81396112D02*
X133084463Y-82053721D01*
X129267903Y-83778456D02*
X129637370Y-84147923D01*
X128228456Y-84817903D02*
X128597923Y-85187370D01*
X125216043Y-75709490D02*
X125585510Y-76078957D01*
X126255490Y-74670043D02*
X126624957Y-75039510D01*
X135617903Y-79968456D02*
X135987370Y-80337923D01*
X134578456Y-81007903D02*
X134947923Y-81377370D01*
X146745000Y-74930000D02*
X146745000Y-62170000D01*
X146745000Y-62170000D02*
X144085000Y-62170000D01*
X146745000Y-76200000D02*
X146745000Y-77530000D01*
X146745000Y-74930000D02*
X144085000Y-74930000D01*
X144085000Y-74930000D02*
X144085000Y-62170000D01*
X146745000Y-77530000D02*
X145415000Y-77530000D01*
X128835543Y-61641010D02*
X129205010Y-61271543D01*
X129874990Y-62680457D02*
X130244457Y-62310990D01*
G36*
X118004407Y-62824467D02*
G01*
X118075025Y-62626605D01*
X118102719Y-62583173D01*
X118422621Y-62583173D01*
X118706672Y-62713215D01*
X118990723Y-62843258D01*
X119119552Y-62714429D01*
X119226814Y-62627732D01*
X119318610Y-62586213D01*
X119326890Y-62585600D01*
X119390552Y-62541714D01*
X119405400Y-62458600D01*
X119429212Y-62359011D01*
X119507000Y-62331600D01*
X119586670Y-62361365D01*
X119608600Y-62458600D01*
X119634511Y-62560418D01*
X119700490Y-62585600D01*
X119814195Y-62614735D01*
X119890316Y-62657211D01*
X119956386Y-62715307D01*
X119948580Y-62768162D01*
X119897133Y-62829507D01*
X119812878Y-62896881D01*
X119716605Y-62894371D01*
X119663999Y-62876586D01*
X119528806Y-62848751D01*
X119419312Y-62864635D01*
X119364818Y-62916735D01*
X119366879Y-62952639D01*
X119418091Y-62994328D01*
X119542147Y-63065712D01*
X119718265Y-63157028D01*
X119925663Y-63258515D01*
X120143559Y-63360409D01*
X120351172Y-63452950D01*
X120527720Y-63526376D01*
X120652421Y-63570924D01*
X120700800Y-63579232D01*
X120726339Y-63525855D01*
X120743108Y-63399283D01*
X120747420Y-63240993D01*
X120704496Y-62899125D01*
X120580363Y-62610541D01*
X120367554Y-62358637D01*
X120339187Y-62333135D01*
X120106454Y-62162305D01*
X119866969Y-62065517D01*
X119583099Y-62029150D01*
X119495931Y-62027915D01*
X119151870Y-62066589D01*
X118861241Y-62184954D01*
X118606020Y-62390472D01*
X118596510Y-62400383D01*
X118422621Y-62583173D01*
X118102719Y-62583173D01*
X118254573Y-62345026D01*
X118491092Y-62092873D01*
X118754092Y-61900863D01*
X118838658Y-61857234D01*
X119115882Y-61772290D01*
X119438266Y-61739632D01*
X119767768Y-61758514D01*
X120066341Y-61828189D01*
X120196023Y-61883866D01*
X120456198Y-62059315D01*
X120696398Y-62290690D01*
X120880152Y-62541885D01*
X120903084Y-62583829D01*
X121014038Y-62899413D01*
X121051744Y-63255012D01*
X121016404Y-63620443D01*
X120908221Y-63965526D01*
X120893588Y-63997365D01*
X120704643Y-64282811D01*
X120442064Y-64520277D01*
X120126336Y-64700059D01*
X119777940Y-64812449D01*
X119417359Y-64847743D01*
X119158855Y-64819382D01*
X118816211Y-64697843D01*
X118503491Y-64487075D01*
X118234416Y-64198149D01*
X118072821Y-63943087D01*
X117991421Y-63709632D01*
X117952927Y-63420870D01*
X117954820Y-63287098D01*
X118237476Y-63287098D01*
X118246720Y-63502333D01*
X118282158Y-63667190D01*
X118356432Y-63831982D01*
X118389081Y-63890508D01*
X118602990Y-64173092D01*
X118869382Y-64381884D01*
X119171915Y-64511613D01*
X119494248Y-64557009D01*
X119820039Y-64512800D01*
X120044077Y-64424339D01*
X120199963Y-64324261D01*
X120367864Y-64187793D01*
X120438711Y-64119739D01*
X120633823Y-63918070D01*
X120340895Y-63783963D01*
X120170170Y-63712036D01*
X120067763Y-63687111D01*
X120014152Y-63705135D01*
X120006861Y-63714628D01*
X119968898Y-63796756D01*
X119964977Y-63818321D01*
X119923090Y-63862953D01*
X119820040Y-63925292D01*
X119786400Y-63942030D01*
X119660771Y-64025620D01*
X119608857Y-64113172D01*
X119608600Y-64119008D01*
X119568534Y-64196752D01*
X119507000Y-64211200D01*
X119421397Y-64174757D01*
X119405400Y-64116501D01*
X119362924Y-64034311D01*
X119229809Y-63956014D01*
X119176800Y-63934500D01*
X119024588Y-63869327D01*
X118960970Y-63814531D01*
X118976845Y-63752579D01*
X119045574Y-63681624D01*
X119139951Y-63623217D01*
X119236923Y-63644059D01*
X119251121Y-63651394D01*
X119385637Y-63693572D01*
X119525205Y-63694238D01*
X119636103Y-63658464D01*
X119684609Y-63591317D01*
X119684800Y-63586198D01*
X119659184Y-63536426D01*
X119575520Y-63472289D01*
X119423579Y-63387857D01*
X119193135Y-63277201D01*
X119006334Y-63192816D01*
X118763396Y-63087895D01*
X118552577Y-63002756D01*
X118391454Y-62944042D01*
X118297603Y-62918400D01*
X118282434Y-62919116D01*
X118259469Y-62980571D01*
X118243295Y-63114331D01*
X118237476Y-63287098D01*
X117954820Y-63287098D01*
X117957276Y-63113561D01*
X118004407Y-62824467D01*
G37*
D14*
X118004407Y-62824467D02*
X118075025Y-62626605D01*
X118102719Y-62583173D01*
X118422621Y-62583173D01*
X118706672Y-62713215D01*
X118990723Y-62843258D01*
X119119552Y-62714429D01*
X119226814Y-62627732D01*
X119318610Y-62586213D01*
X119326890Y-62585600D01*
X119390552Y-62541714D01*
X119405400Y-62458600D01*
X119429212Y-62359011D01*
X119507000Y-62331600D01*
X119586670Y-62361365D01*
X119608600Y-62458600D01*
X119634511Y-62560418D01*
X119700490Y-62585600D01*
X119814195Y-62614735D01*
X119890316Y-62657211D01*
X119956386Y-62715307D01*
X119948580Y-62768162D01*
X119897133Y-62829507D01*
X119812878Y-62896881D01*
X119716605Y-62894371D01*
X119663999Y-62876586D01*
X119528806Y-62848751D01*
X119419312Y-62864635D01*
X119364818Y-62916735D01*
X119366879Y-62952639D01*
X119418091Y-62994328D01*
X119542147Y-63065712D01*
X119718265Y-63157028D01*
X119925663Y-63258515D01*
X120143559Y-63360409D01*
X120351172Y-63452950D01*
X120527720Y-63526376D01*
X120652421Y-63570924D01*
X120700800Y-63579232D01*
X120726339Y-63525855D01*
X120743108Y-63399283D01*
X120747420Y-63240993D01*
X120704496Y-62899125D01*
X120580363Y-62610541D01*
X120367554Y-62358637D01*
X120339187Y-62333135D01*
X120106454Y-62162305D01*
X119866969Y-62065517D01*
X119583099Y-62029150D01*
X119495931Y-62027915D01*
X119151870Y-62066589D01*
X118861241Y-62184954D01*
X118606020Y-62390472D01*
X118596510Y-62400383D01*
X118422621Y-62583173D01*
X118102719Y-62583173D01*
X118254573Y-62345026D01*
X118491092Y-62092873D01*
X118754092Y-61900863D01*
X118838658Y-61857234D01*
X119115882Y-61772290D01*
X119438266Y-61739632D01*
X119767768Y-61758514D01*
X120066341Y-61828189D01*
X120196023Y-61883866D01*
X120456198Y-62059315D01*
X120696398Y-62290690D01*
X120880152Y-62541885D01*
X120903084Y-62583829D01*
X121014038Y-62899413D01*
X121051744Y-63255012D01*
X121016404Y-63620443D01*
X120908221Y-63965526D01*
X120893588Y-63997365D01*
X120704643Y-64282811D01*
X120442064Y-64520277D01*
X120126336Y-64700059D01*
X119777940Y-64812449D01*
X119417359Y-64847743D01*
X119158855Y-64819382D01*
X118816211Y-64697843D01*
X118503491Y-64487075D01*
X118234416Y-64198149D01*
X118072821Y-63943087D01*
X117991421Y-63709632D01*
X117952927Y-63420870D01*
X117954820Y-63287098D01*
X118237476Y-63287098D01*
X118246720Y-63502333D01*
X118282158Y-63667190D01*
X118356432Y-63831982D01*
X118389081Y-63890508D01*
X118602990Y-64173092D01*
X118869382Y-64381884D01*
X119171915Y-64511613D01*
X119494248Y-64557009D01*
X119820039Y-64512800D01*
X120044077Y-64424339D01*
X120199963Y-64324261D01*
X120367864Y-64187793D01*
X120438711Y-64119739D01*
X120633823Y-63918070D01*
X120340895Y-63783963D01*
X120170170Y-63712036D01*
X120067763Y-63687111D01*
X120014152Y-63705135D01*
X120006861Y-63714628D01*
X119968898Y-63796756D01*
X119964977Y-63818321D01*
X119923090Y-63862953D01*
X119820040Y-63925292D01*
X119786400Y-63942030D01*
X119660771Y-64025620D01*
X119608857Y-64113172D01*
X119608600Y-64119008D01*
X119568534Y-64196752D01*
X119507000Y-64211200D01*
X119421397Y-64174757D01*
X119405400Y-64116501D01*
X119362924Y-64034311D01*
X119229809Y-63956014D01*
X119176800Y-63934500D01*
X119024588Y-63869327D01*
X118960970Y-63814531D01*
X118976845Y-63752579D01*
X119045574Y-63681624D01*
X119139951Y-63623217D01*
X119236923Y-63644059D01*
X119251121Y-63651394D01*
X119385637Y-63693572D01*
X119525205Y-63694238D01*
X119636103Y-63658464D01*
X119684609Y-63591317D01*
X119684800Y-63586198D01*
X119659184Y-63536426D01*
X119575520Y-63472289D01*
X119423579Y-63387857D01*
X119193135Y-63277201D01*
X119006334Y-63192816D01*
X118763396Y-63087895D01*
X118552577Y-63002756D01*
X118391454Y-62944042D01*
X118297603Y-62918400D01*
X118282434Y-62919116D01*
X118259469Y-62980571D01*
X118243295Y-63114331D01*
X118237476Y-63287098D01*
X117954820Y-63287098D01*
X117957276Y-63113561D01*
X118004407Y-62824467D01*
G36*
X117963843Y-59558959D02*
G01*
X117983315Y-59390832D01*
X118024596Y-59250394D01*
X118094947Y-59100820D01*
X118095202Y-59100334D01*
X118283887Y-58821544D01*
X118530265Y-58575109D01*
X118806781Y-58384783D01*
X119039218Y-58286506D01*
X119429538Y-58222432D01*
X119812208Y-58252064D01*
X120172120Y-58368834D01*
X120494168Y-58566173D01*
X120763243Y-58837513D01*
X120933501Y-59110098D01*
X121022064Y-59375742D01*
X121062477Y-59689775D01*
X121054519Y-60013963D01*
X120997972Y-60310071D01*
X120941260Y-60457072D01*
X120723176Y-60790176D01*
X120437590Y-61053533D01*
X120097871Y-61238379D01*
X119717388Y-61335945D01*
X119583200Y-61347584D01*
X119383705Y-61349917D01*
X119208681Y-61340303D01*
X119100600Y-61321914D01*
X118723461Y-61145735D01*
X118398071Y-60887788D01*
X118139847Y-60561189D01*
X118077895Y-60452000D01*
X118014819Y-60310406D01*
X117978220Y-60163381D01*
X117961795Y-59975936D01*
X117959410Y-59822893D01*
X118238115Y-59822893D01*
X118285900Y-60154814D01*
X118416395Y-60448456D01*
X118615006Y-60694772D01*
X118867139Y-60884711D01*
X119158199Y-61009226D01*
X119473592Y-61059269D01*
X119798723Y-61025790D01*
X120040400Y-60940324D01*
X120353840Y-60745295D01*
X120580333Y-60497771D01*
X120720524Y-60196732D01*
X120775059Y-59841160D01*
X120775884Y-59780531D01*
X120738546Y-59441409D01*
X120622663Y-59154056D01*
X120418517Y-58895509D01*
X120389355Y-58866980D01*
X120138703Y-58672961D01*
X119867414Y-58561785D01*
X119546230Y-58522100D01*
X119499270Y-58521600D01*
X119156962Y-58561366D01*
X118862526Y-58685645D01*
X118599614Y-58901905D01*
X118551313Y-58954648D01*
X118364199Y-59225637D01*
X118263053Y-59525378D01*
X118238115Y-59822893D01*
X117959410Y-59822893D01*
X117958922Y-59791600D01*
X117963843Y-59558959D01*
G37*
X117963843Y-59558959D02*
X117983315Y-59390832D01*
X118024596Y-59250394D01*
X118094947Y-59100820D01*
X118095202Y-59100334D01*
X118283887Y-58821544D01*
X118530265Y-58575109D01*
X118806781Y-58384783D01*
X119039218Y-58286506D01*
X119429538Y-58222432D01*
X119812208Y-58252064D01*
X120172120Y-58368834D01*
X120494168Y-58566173D01*
X120763243Y-58837513D01*
X120933501Y-59110098D01*
X121022064Y-59375742D01*
X121062477Y-59689775D01*
X121054519Y-60013963D01*
X120997972Y-60310071D01*
X120941260Y-60457072D01*
X120723176Y-60790176D01*
X120437590Y-61053533D01*
X120097871Y-61238379D01*
X119717388Y-61335945D01*
X119583200Y-61347584D01*
X119383705Y-61349917D01*
X119208681Y-61340303D01*
X119100600Y-61321914D01*
X118723461Y-61145735D01*
X118398071Y-60887788D01*
X118139847Y-60561189D01*
X118077895Y-60452000D01*
X118014819Y-60310406D01*
X117978220Y-60163381D01*
X117961795Y-59975936D01*
X117959410Y-59822893D01*
X118238115Y-59822893D01*
X118285900Y-60154814D01*
X118416395Y-60448456D01*
X118615006Y-60694772D01*
X118867139Y-60884711D01*
X119158199Y-61009226D01*
X119473592Y-61059269D01*
X119798723Y-61025790D01*
X120040400Y-60940324D01*
X120353840Y-60745295D01*
X120580333Y-60497771D01*
X120720524Y-60196732D01*
X120775059Y-59841160D01*
X120775884Y-59780531D01*
X120738546Y-59441409D01*
X120622663Y-59154056D01*
X120418517Y-58895509D01*
X120389355Y-58866980D01*
X120138703Y-58672961D01*
X119867414Y-58561785D01*
X119546230Y-58522100D01*
X119499270Y-58521600D01*
X119156962Y-58561366D01*
X118862526Y-58685645D01*
X118599614Y-58901905D01*
X118551313Y-58954648D01*
X118364199Y-59225637D01*
X118263053Y-59525378D01*
X118238115Y-59822893D01*
X117959410Y-59822893D01*
X117958922Y-59791600D01*
X117963843Y-59558959D01*
G36*
X120116702Y-59317497D02*
G01*
X120294400Y-59405288D01*
X120363857Y-59467595D01*
X120352376Y-59521505D01*
X120307462Y-59570418D01*
X120227330Y-59628346D01*
X120163313Y-59604439D01*
X120157602Y-59598922D01*
X120059799Y-59549249D01*
X119980407Y-59537600D01*
X119879610Y-59581296D01*
X119823539Y-59696977D01*
X119821158Y-59861528D01*
X119832660Y-59918600D01*
X119880663Y-60013094D01*
X119981025Y-60044653D01*
X120015967Y-60045600D01*
X120122553Y-60030798D01*
X120167396Y-59995168D01*
X120167400Y-59994800D01*
X120199516Y-59947522D01*
X120292899Y-59977755D01*
X120319800Y-59993905D01*
X120364449Y-60038977D01*
X120338414Y-60097092D01*
X120294223Y-60144292D01*
X120133438Y-60245028D01*
X119944571Y-60276903D01*
X119770388Y-60232908D01*
X119766591Y-60230775D01*
X119646348Y-60130764D01*
X119577891Y-60040008D01*
X119511918Y-59836708D01*
X119530379Y-59646962D01*
X119616681Y-59485469D01*
X119754231Y-59366928D01*
X119926436Y-59306038D01*
X120116702Y-59317497D01*
G37*
X120116702Y-59317497D02*
X120294400Y-59405288D01*
X120363857Y-59467595D01*
X120352376Y-59521505D01*
X120307462Y-59570418D01*
X120227330Y-59628346D01*
X120163313Y-59604439D01*
X120157602Y-59598922D01*
X120059799Y-59549249D01*
X119980407Y-59537600D01*
X119879610Y-59581296D01*
X119823539Y-59696977D01*
X119821158Y-59861528D01*
X119832660Y-59918600D01*
X119880663Y-60013094D01*
X119981025Y-60044653D01*
X120015967Y-60045600D01*
X120122553Y-60030798D01*
X120167396Y-59995168D01*
X120167400Y-59994800D01*
X120199516Y-59947522D01*
X120292899Y-59977755D01*
X120319800Y-59993905D01*
X120364449Y-60038977D01*
X120338414Y-60097092D01*
X120294223Y-60144292D01*
X120133438Y-60245028D01*
X119944571Y-60276903D01*
X119770388Y-60232908D01*
X119766591Y-60230775D01*
X119646348Y-60130764D01*
X119577891Y-60040008D01*
X119511918Y-59836708D01*
X119530379Y-59646962D01*
X119616681Y-59485469D01*
X119754231Y-59366928D01*
X119926436Y-59306038D01*
X120116702Y-59317497D01*
G36*
X123910246Y-65450940D02*
G01*
X123964823Y-65306907D01*
X124010752Y-65224811D01*
X124059254Y-65187260D01*
X124121546Y-65176858D01*
X124156946Y-65176400D01*
X124232378Y-65180558D01*
X124286156Y-65205414D01*
X124330388Y-65269537D01*
X124377182Y-65391496D01*
X124438646Y-65589862D01*
X124448948Y-65624244D01*
X124512034Y-65832457D01*
X124567256Y-66010154D01*
X124606057Y-66129991D01*
X124615839Y-66157644D01*
X124618371Y-66221444D01*
X124544296Y-66242659D01*
X124517202Y-66243200D01*
X124406039Y-66213809D01*
X124353860Y-66116200D01*
X124311579Y-66026638D01*
X124223600Y-65992464D01*
X124150660Y-65989200D01*
X124026155Y-66003879D01*
X123965281Y-66062738D01*
X123947460Y-66116200D01*
X123889503Y-66218087D01*
X123794092Y-66243200D01*
X123701217Y-66230525D01*
X123672600Y-66207707D01*
X123687528Y-66147374D01*
X123727822Y-66012675D01*
X123786740Y-65825638D01*
X123812425Y-65746411D01*
X124046718Y-65746411D01*
X124089843Y-65782347D01*
X124149477Y-65786000D01*
X124228171Y-65778771D01*
X124250128Y-65737988D01*
X124226269Y-65635003D01*
X124217737Y-65606947D01*
X124169669Y-65491919D01*
X124125127Y-65477010D01*
X124081777Y-65562796D01*
X124059190Y-65646300D01*
X124046718Y-65746411D01*
X123812425Y-65746411D01*
X123835802Y-65674307D01*
X123910246Y-65450940D01*
G37*
X123910246Y-65450940D02*
X123964823Y-65306907D01*
X124010752Y-65224811D01*
X124059254Y-65187260D01*
X124121546Y-65176858D01*
X124156946Y-65176400D01*
X124232378Y-65180558D01*
X124286156Y-65205414D01*
X124330388Y-65269537D01*
X124377182Y-65391496D01*
X124438646Y-65589862D01*
X124448948Y-65624244D01*
X124512034Y-65832457D01*
X124567256Y-66010154D01*
X124606057Y-66129991D01*
X124615839Y-66157644D01*
X124618371Y-66221444D01*
X124544296Y-66242659D01*
X124517202Y-66243200D01*
X124406039Y-66213809D01*
X124353860Y-66116200D01*
X124311579Y-66026638D01*
X124223600Y-65992464D01*
X124150660Y-65989200D01*
X124026155Y-66003879D01*
X123965281Y-66062738D01*
X123947460Y-66116200D01*
X123889503Y-66218087D01*
X123794092Y-66243200D01*
X123701217Y-66230525D01*
X123672600Y-66207707D01*
X123687528Y-66147374D01*
X123727822Y-66012675D01*
X123786740Y-65825638D01*
X123812425Y-65746411D01*
X124046718Y-65746411D01*
X124089843Y-65782347D01*
X124149477Y-65786000D01*
X124228171Y-65778771D01*
X124250128Y-65737988D01*
X124226269Y-65635003D01*
X124217737Y-65606947D01*
X124169669Y-65491919D01*
X124125127Y-65477010D01*
X124081777Y-65562796D01*
X124059190Y-65646300D01*
X124046718Y-65746411D01*
X123812425Y-65746411D01*
X123835802Y-65674307D01*
X123910246Y-65450940D01*
G36*
X119632799Y-65184012D02*
G01*
X119659400Y-65197064D01*
X119640111Y-65250085D01*
X119589220Y-65370859D01*
X119517185Y-65534652D01*
X119507000Y-65557400D01*
X119430125Y-65752527D01*
X119375355Y-65936951D01*
X119354600Y-66070135D01*
X119344486Y-66188316D01*
X119299415Y-66235827D01*
X119227600Y-66243200D01*
X119145987Y-66232214D01*
X119109566Y-66180267D01*
X119100659Y-66058876D01*
X119100600Y-66038551D01*
X119069176Y-65840816D01*
X118982335Y-65603356D01*
X118948200Y-65532000D01*
X118870781Y-65374415D01*
X118815920Y-65254695D01*
X118795800Y-65199874D01*
X118839108Y-65182920D01*
X118931582Y-65185725D01*
X119024525Y-65215344D01*
X119090046Y-65294833D01*
X119144480Y-65430400D01*
X119221596Y-65659000D01*
X119322899Y-65417700D01*
X119397141Y-65266790D01*
X119467466Y-65193528D01*
X119541801Y-65176400D01*
X119632799Y-65184012D01*
G37*
X119632799Y-65184012D02*
X119659400Y-65197064D01*
X119640111Y-65250085D01*
X119589220Y-65370859D01*
X119517185Y-65534652D01*
X119507000Y-65557400D01*
X119430125Y-65752527D01*
X119375355Y-65936951D01*
X119354600Y-66070135D01*
X119344486Y-66188316D01*
X119299415Y-66235827D01*
X119227600Y-66243200D01*
X119145987Y-66232214D01*
X119109566Y-66180267D01*
X119100659Y-66058876D01*
X119100600Y-66038551D01*
X119069176Y-65840816D01*
X118982335Y-65603356D01*
X118948200Y-65532000D01*
X118870781Y-65374415D01*
X118815920Y-65254695D01*
X118795800Y-65199874D01*
X118839108Y-65182920D01*
X118931582Y-65185725D01*
X119024525Y-65215344D01*
X119090046Y-65294833D01*
X119144480Y-65430400D01*
X119221596Y-65659000D01*
X119322899Y-65417700D01*
X119397141Y-65266790D01*
X119467466Y-65193528D01*
X119541801Y-65176400D01*
X119632799Y-65184012D01*
G36*
X122054092Y-65233721D02*
G01*
X122070451Y-65244893D01*
X122135444Y-65324732D01*
X122113994Y-65386605D01*
X122021257Y-65412514D01*
X121937151Y-65403188D01*
X121771830Y-65409469D01*
X121651559Y-65498645D01*
X121592917Y-65656081D01*
X121589800Y-65709800D01*
X121625900Y-65883156D01*
X121722548Y-65992693D01*
X121862268Y-66023951D01*
X121945997Y-66004524D01*
X122065672Y-65974252D01*
X122137294Y-66002355D01*
X122149073Y-66015171D01*
X122168653Y-66080814D01*
X122103187Y-66152167D01*
X122088918Y-66162423D01*
X121901392Y-66235026D01*
X121691033Y-66217780D01*
X121590801Y-66177949D01*
X121441837Y-66050163D01*
X121357045Y-65866118D01*
X121343235Y-65653417D01*
X121407215Y-65439659D01*
X121408190Y-65437767D01*
X121531140Y-65291943D01*
X121701387Y-65203034D01*
X121886510Y-65180479D01*
X122054092Y-65233721D01*
G37*
X122054092Y-65233721D02*
X122070451Y-65244893D01*
X122135444Y-65324732D01*
X122113994Y-65386605D01*
X122021257Y-65412514D01*
X121937151Y-65403188D01*
X121771830Y-65409469D01*
X121651559Y-65498645D01*
X121592917Y-65656081D01*
X121589800Y-65709800D01*
X121625900Y-65883156D01*
X121722548Y-65992693D01*
X121862268Y-66023951D01*
X121945997Y-66004524D01*
X122065672Y-65974252D01*
X122137294Y-66002355D01*
X122149073Y-66015171D01*
X122168653Y-66080814D01*
X122103187Y-66152167D01*
X122088918Y-66162423D01*
X121901392Y-66235026D01*
X121691033Y-66217780D01*
X121590801Y-66177949D01*
X121441837Y-66050163D01*
X121357045Y-65866118D01*
X121343235Y-65653417D01*
X121407215Y-65439659D01*
X121408190Y-65437767D01*
X121531140Y-65291943D01*
X121701387Y-65203034D01*
X121886510Y-65180479D01*
X122054092Y-65233721D01*
G36*
X123458925Y-59677300D02*
G01*
X123463259Y-59871723D01*
X123454408Y-59984695D01*
X123428981Y-60035892D01*
X123395425Y-60045600D01*
X123354287Y-60063949D01*
X123330129Y-60131607D01*
X123319057Y-60267489D01*
X123317000Y-60426600D01*
X123317000Y-60807600D01*
X122809000Y-60807600D01*
X122809000Y-60426600D01*
X122805222Y-60226746D01*
X122791296Y-60109384D01*
X122763325Y-60055597D01*
X122730574Y-60045600D01*
X122689848Y-60028950D01*
X122668348Y-59965886D01*
X122662680Y-59836730D01*
X122667074Y-59677300D01*
X122682000Y-59309000D01*
X123444000Y-59309000D01*
X123458925Y-59677300D01*
G37*
X123458925Y-59677300D02*
X123463259Y-59871723D01*
X123454408Y-59984695D01*
X123428981Y-60035892D01*
X123395425Y-60045600D01*
X123354287Y-60063949D01*
X123330129Y-60131607D01*
X123319057Y-60267489D01*
X123317000Y-60426600D01*
X123317000Y-60807600D01*
X122809000Y-60807600D01*
X122809000Y-60426600D01*
X122805222Y-60226746D01*
X122791296Y-60109384D01*
X122763325Y-60055597D01*
X122730574Y-60045600D01*
X122689848Y-60028950D01*
X122668348Y-59965886D01*
X122662680Y-59836730D01*
X122667074Y-59677300D01*
X122682000Y-59309000D01*
X123444000Y-59309000D01*
X123458925Y-59677300D01*
G36*
X122646281Y-65721364D02*
G01*
X122656600Y-65782933D01*
X122640890Y-65850729D01*
X122575822Y-65881068D01*
X122449675Y-65887600D01*
X122316941Y-65879839D01*
X122262171Y-65849408D01*
X122259597Y-65798700D01*
X122313725Y-65729257D01*
X122451039Y-65695442D01*
X122466522Y-65694033D01*
X122592305Y-65691592D01*
X122646281Y-65721364D01*
G37*
X122646281Y-65721364D02*
X122656600Y-65782933D01*
X122640890Y-65850729D01*
X122575822Y-65881068D01*
X122449675Y-65887600D01*
X122316941Y-65879839D01*
X122262171Y-65849408D01*
X122259597Y-65798700D01*
X122313725Y-65729257D01*
X122451039Y-65695442D01*
X122466522Y-65694033D01*
X122592305Y-65691592D01*
X122646281Y-65721364D01*
G36*
X119279727Y-59344523D02*
G01*
X119408631Y-59428401D01*
X119526309Y-59523691D01*
X119409600Y-59586151D01*
X119299400Y-59621655D01*
X119237386Y-59593106D01*
X119136370Y-59543801D01*
X119020071Y-59547835D01*
X118936803Y-59601325D01*
X118928235Y-59617954D01*
X118898561Y-59775354D01*
X118919962Y-59920635D01*
X118958359Y-59984639D01*
X119050322Y-60032589D01*
X119162108Y-60042947D01*
X119246676Y-60014592D01*
X119262435Y-59991892D01*
X119311802Y-59960293D01*
X119387531Y-59983410D01*
X119446486Y-60041846D01*
X119456200Y-60079027D01*
X119413244Y-60140532D01*
X119308496Y-60210007D01*
X119178135Y-60268512D01*
X119058343Y-60297106D01*
X119038731Y-60297566D01*
X118949467Y-60273195D01*
X118838015Y-60221900D01*
X118698753Y-60094832D01*
X118626102Y-59920356D01*
X118618971Y-59726818D01*
X118676267Y-59542563D01*
X118796897Y-59395936D01*
X118871636Y-59349742D01*
X119079310Y-59297286D01*
X119279727Y-59344523D01*
G37*
X119279727Y-59344523D02*
X119408631Y-59428401D01*
X119526309Y-59523691D01*
X119409600Y-59586151D01*
X119299400Y-59621655D01*
X119237386Y-59593106D01*
X119136370Y-59543801D01*
X119020071Y-59547835D01*
X118936803Y-59601325D01*
X118928235Y-59617954D01*
X118898561Y-59775354D01*
X118919962Y-59920635D01*
X118958359Y-59984639D01*
X119050322Y-60032589D01*
X119162108Y-60042947D01*
X119246676Y-60014592D01*
X119262435Y-59991892D01*
X119311802Y-59960293D01*
X119387531Y-59983410D01*
X119446486Y-60041846D01*
X119456200Y-60079027D01*
X119413244Y-60140532D01*
X119308496Y-60210007D01*
X119178135Y-60268512D01*
X119058343Y-60297106D01*
X119038731Y-60297566D01*
X118949467Y-60273195D01*
X118838015Y-60221900D01*
X118698753Y-60094832D01*
X118626102Y-59920356D01*
X118618971Y-59726818D01*
X118676267Y-59542563D01*
X118796897Y-59395936D01*
X118871636Y-59349742D01*
X119079310Y-59297286D01*
X119279727Y-59344523D01*
G36*
X121562098Y-62814598D02*
G01*
X121622762Y-62642766D01*
X121705590Y-62495115D01*
X121831481Y-62339844D01*
X121966096Y-62199896D01*
X122147805Y-62028204D01*
X122298143Y-61915185D01*
X122448908Y-61839941D01*
X122580798Y-61795898D01*
X122965202Y-61730788D01*
X123333225Y-61755161D01*
X123674479Y-61859200D01*
X123978580Y-62033089D01*
X124235139Y-62267010D01*
X124433770Y-62551147D01*
X124564087Y-62875683D01*
X124615702Y-63230801D01*
X124578230Y-63606684D01*
X124562955Y-63669298D01*
X124414699Y-64045578D01*
X124189247Y-64358403D01*
X123893242Y-64601128D01*
X123533329Y-64767105D01*
X123437525Y-64794952D01*
X123199478Y-64848237D01*
X123009306Y-64863871D01*
X122820693Y-64842293D01*
X122654088Y-64802411D01*
X122294861Y-64656468D01*
X121992911Y-64435614D01*
X121755745Y-64153515D01*
X121590868Y-63823833D01*
X121505787Y-63460234D01*
X121506668Y-63307868D01*
X121794186Y-63307868D01*
X121843794Y-63651066D01*
X121982663Y-63962263D01*
X122199808Y-64226002D01*
X122484246Y-64426826D01*
X122637676Y-64494942D01*
X122880917Y-64545433D01*
X123163755Y-64544730D01*
X123439689Y-64495575D01*
X123594216Y-64438511D01*
X123856640Y-64264899D01*
X124080361Y-64026545D01*
X124237146Y-63755048D01*
X124260076Y-63693335D01*
X124325819Y-63349691D01*
X124299586Y-63019592D01*
X124191000Y-62716144D01*
X124009683Y-62452453D01*
X123765259Y-62241624D01*
X123467351Y-62096764D01*
X123125582Y-62030977D01*
X123037600Y-62028411D01*
X122701921Y-62066716D01*
X122417316Y-62186212D01*
X122163247Y-62396014D01*
X122130963Y-62430870D01*
X121947378Y-62668387D01*
X121841232Y-62902789D01*
X121797526Y-63173132D01*
X121794186Y-63307868D01*
X121506668Y-63307868D01*
X121508009Y-63076381D01*
X121562098Y-62814598D01*
G37*
X121562098Y-62814598D02*
X121622762Y-62642766D01*
X121705590Y-62495115D01*
X121831481Y-62339844D01*
X121966096Y-62199896D01*
X122147805Y-62028204D01*
X122298143Y-61915185D01*
X122448908Y-61839941D01*
X122580798Y-61795898D01*
X122965202Y-61730788D01*
X123333225Y-61755161D01*
X123674479Y-61859200D01*
X123978580Y-62033089D01*
X124235139Y-62267010D01*
X124433770Y-62551147D01*
X124564087Y-62875683D01*
X124615702Y-63230801D01*
X124578230Y-63606684D01*
X124562955Y-63669298D01*
X124414699Y-64045578D01*
X124189247Y-64358403D01*
X123893242Y-64601128D01*
X123533329Y-64767105D01*
X123437525Y-64794952D01*
X123199478Y-64848237D01*
X123009306Y-64863871D01*
X122820693Y-64842293D01*
X122654088Y-64802411D01*
X122294861Y-64656468D01*
X121992911Y-64435614D01*
X121755745Y-64153515D01*
X121590868Y-63823833D01*
X121505787Y-63460234D01*
X121506668Y-63307868D01*
X121794186Y-63307868D01*
X121843794Y-63651066D01*
X121982663Y-63962263D01*
X122199808Y-64226002D01*
X122484246Y-64426826D01*
X122637676Y-64494942D01*
X122880917Y-64545433D01*
X123163755Y-64544730D01*
X123439689Y-64495575D01*
X123594216Y-64438511D01*
X123856640Y-64264899D01*
X124080361Y-64026545D01*
X124237146Y-63755048D01*
X124260076Y-63693335D01*
X124325819Y-63349691D01*
X124299586Y-63019592D01*
X124191000Y-62716144D01*
X124009683Y-62452453D01*
X123765259Y-62241624D01*
X123467351Y-62096764D01*
X123125582Y-62030977D01*
X123037600Y-62028411D01*
X122701921Y-62066716D01*
X122417316Y-62186212D01*
X122163247Y-62396014D01*
X122130963Y-62430870D01*
X121947378Y-62668387D01*
X121841232Y-62902789D01*
X121797526Y-63173132D01*
X121794186Y-63307868D01*
X121506668Y-63307868D01*
X121508009Y-63076381D01*
X121562098Y-62814598D01*
G36*
X123184755Y-58811319D02*
G01*
X123239165Y-58858693D01*
X123257170Y-58943771D01*
X123240677Y-59100758D01*
X123161285Y-59204226D01*
X123063000Y-59232800D01*
X122955406Y-59196162D01*
X122913149Y-59159671D01*
X122873355Y-59057080D01*
X122868829Y-58943771D01*
X122892781Y-58846953D01*
X122956288Y-58807624D01*
X123063000Y-58801000D01*
X123184755Y-58811319D01*
G37*
X123184755Y-58811319D02*
X123239165Y-58858693D01*
X123257170Y-58943771D01*
X123240677Y-59100758D01*
X123161285Y-59204226D01*
X123063000Y-59232800D01*
X122955406Y-59196162D01*
X122913149Y-59159671D01*
X122873355Y-59057080D01*
X122868829Y-58943771D01*
X122892781Y-58846953D01*
X122956288Y-58807624D01*
X123063000Y-58801000D01*
X123184755Y-58811319D01*
G36*
X123454477Y-65242298D02*
G01*
X123531133Y-65311543D01*
X123516811Y-65370868D01*
X123422085Y-65407209D01*
X123317000Y-65412122D01*
X123174331Y-65421346D01*
X123126539Y-65460990D01*
X123173241Y-65526152D01*
X123314053Y-65611926D01*
X123333397Y-65621498D01*
X123505806Y-65727180D01*
X123592697Y-65839300D01*
X123603274Y-65871504D01*
X123593415Y-66009552D01*
X123506416Y-66124444D01*
X123366015Y-66205084D01*
X123195954Y-66240377D01*
X123019973Y-66219228D01*
X122936000Y-66183363D01*
X122837731Y-66124512D01*
X122812944Y-66084000D01*
X122846186Y-66031037D01*
X122854508Y-66020975D01*
X122923630Y-65975872D01*
X123029265Y-65992530D01*
X123057456Y-66002657D01*
X123197868Y-66031068D01*
X123311638Y-66012599D01*
X123366609Y-65953641D01*
X123367800Y-65940974D01*
X123325854Y-65891520D01*
X123218410Y-65820721D01*
X123130343Y-65774279D01*
X122938815Y-65655259D01*
X122848260Y-65532412D01*
X122858077Y-65404288D01*
X122934262Y-65300519D01*
X123102374Y-65198353D01*
X123297571Y-65186328D01*
X123454477Y-65242298D01*
G37*
X123454477Y-65242298D02*
X123531133Y-65311543D01*
X123516811Y-65370868D01*
X123422085Y-65407209D01*
X123317000Y-65412122D01*
X123174331Y-65421346D01*
X123126539Y-65460990D01*
X123173241Y-65526152D01*
X123314053Y-65611926D01*
X123333397Y-65621498D01*
X123505806Y-65727180D01*
X123592697Y-65839300D01*
X123603274Y-65871504D01*
X123593415Y-66009552D01*
X123506416Y-66124444D01*
X123366015Y-66205084D01*
X123195954Y-66240377D01*
X123019973Y-66219228D01*
X122936000Y-66183363D01*
X122837731Y-66124512D01*
X122812944Y-66084000D01*
X122846186Y-66031037D01*
X122854508Y-66020975D01*
X122923630Y-65975872D01*
X123029265Y-65992530D01*
X123057456Y-66002657D01*
X123197868Y-66031068D01*
X123311638Y-66012599D01*
X123366609Y-65953641D01*
X123367800Y-65940974D01*
X123325854Y-65891520D01*
X123218410Y-65820721D01*
X123130343Y-65774279D01*
X122938815Y-65655259D01*
X122848260Y-65532412D01*
X122858077Y-65404288D01*
X122934262Y-65300519D01*
X123102374Y-65198353D01*
X123297571Y-65186328D01*
X123454477Y-65242298D01*
G36*
X120004681Y-65721364D02*
G01*
X120015000Y-65782933D01*
X119999290Y-65850729D01*
X119934222Y-65881068D01*
X119808075Y-65887600D01*
X119675341Y-65879839D01*
X119620571Y-65849408D01*
X119617997Y-65798700D01*
X119672125Y-65729257D01*
X119809439Y-65695442D01*
X119824922Y-65694033D01*
X119950705Y-65691592D01*
X120004681Y-65721364D01*
G37*
X120004681Y-65721364D02*
X120015000Y-65782933D01*
X119999290Y-65850729D01*
X119934222Y-65881068D01*
X119808075Y-65887600D01*
X119675341Y-65879839D01*
X119620571Y-65849408D01*
X119617997Y-65798700D01*
X119672125Y-65729257D01*
X119809439Y-65695442D01*
X119824922Y-65694033D01*
X119950705Y-65691592D01*
X120004681Y-65721364D01*
G36*
X121519890Y-59450904D02*
G01*
X121622236Y-59151046D01*
X121806145Y-58870322D01*
X121966953Y-58693838D01*
X122148626Y-58522264D01*
X122299126Y-58409362D01*
X122450373Y-58334171D01*
X122580798Y-58290698D01*
X122981220Y-58223035D01*
X123368842Y-58250231D01*
X123730522Y-58366583D01*
X124053119Y-58566386D01*
X124323491Y-58843939D01*
X124494974Y-59121405D01*
X124576970Y-59370988D01*
X124615911Y-59673887D01*
X124611512Y-59991256D01*
X124563489Y-60284252D01*
X124504724Y-60452000D01*
X124346574Y-60702791D01*
X124122605Y-60943934D01*
X123865941Y-61142697D01*
X123727770Y-61219765D01*
X123532907Y-61285533D01*
X123287493Y-61331362D01*
X123029920Y-61353589D01*
X122798583Y-61348554D01*
X122656600Y-61321914D01*
X122291234Y-61154021D01*
X121981814Y-60915994D01*
X121738756Y-60621446D01*
X121572475Y-60283990D01*
X121493390Y-59917240D01*
X121491606Y-59875196D01*
X121794287Y-59875196D01*
X121848147Y-60188689D01*
X121900681Y-60326589D01*
X122030407Y-60531419D01*
X122212863Y-60730617D01*
X122417175Y-60895247D01*
X122612472Y-60996371D01*
X122616725Y-60997756D01*
X122839069Y-61042003D01*
X123097542Y-61053811D01*
X123347454Y-61033835D01*
X123540527Y-60984245D01*
X123761354Y-60856772D01*
X123978081Y-60672724D01*
X124156210Y-60464697D01*
X124238224Y-60325000D01*
X124307356Y-60085881D01*
X124331172Y-59801321D01*
X124309750Y-59515706D01*
X124243168Y-59273422D01*
X124236340Y-59258200D01*
X124094080Y-59034897D01*
X123892867Y-58822394D01*
X123668307Y-58655321D01*
X123559931Y-58600280D01*
X123354163Y-58546638D01*
X123099969Y-58524806D01*
X122842006Y-58535123D01*
X122624931Y-58577927D01*
X122584378Y-58592863D01*
X122359362Y-58726104D01*
X122140126Y-58922355D01*
X121961865Y-59147377D01*
X121899494Y-59259135D01*
X121811388Y-59551549D01*
X121794287Y-59875196D01*
X121491606Y-59875196D01*
X121488200Y-59794986D01*
X121519890Y-59450904D01*
G37*
X121519890Y-59450904D02*
X121622236Y-59151046D01*
X121806145Y-58870322D01*
X121966953Y-58693838D01*
X122148626Y-58522264D01*
X122299126Y-58409362D01*
X122450373Y-58334171D01*
X122580798Y-58290698D01*
X122981220Y-58223035D01*
X123368842Y-58250231D01*
X123730522Y-58366583D01*
X124053119Y-58566386D01*
X124323491Y-58843939D01*
X124494974Y-59121405D01*
X124576970Y-59370988D01*
X124615911Y-59673887D01*
X124611512Y-59991256D01*
X124563489Y-60284252D01*
X124504724Y-60452000D01*
X124346574Y-60702791D01*
X124122605Y-60943934D01*
X123865941Y-61142697D01*
X123727770Y-61219765D01*
X123532907Y-61285533D01*
X123287493Y-61331362D01*
X123029920Y-61353589D01*
X122798583Y-61348554D01*
X122656600Y-61321914D01*
X122291234Y-61154021D01*
X121981814Y-60915994D01*
X121738756Y-60621446D01*
X121572475Y-60283990D01*
X121493390Y-59917240D01*
X121491606Y-59875196D01*
X121794287Y-59875196D01*
X121848147Y-60188689D01*
X121900681Y-60326589D01*
X122030407Y-60531419D01*
X122212863Y-60730617D01*
X122417175Y-60895247D01*
X122612472Y-60996371D01*
X122616725Y-60997756D01*
X122839069Y-61042003D01*
X123097542Y-61053811D01*
X123347454Y-61033835D01*
X123540527Y-60984245D01*
X123761354Y-60856772D01*
X123978081Y-60672724D01*
X124156210Y-60464697D01*
X124238224Y-60325000D01*
X124307356Y-60085881D01*
X124331172Y-59801321D01*
X124309750Y-59515706D01*
X124243168Y-59273422D01*
X124236340Y-59258200D01*
X124094080Y-59034897D01*
X123892867Y-58822394D01*
X123668307Y-58655321D01*
X123559931Y-58600280D01*
X123354163Y-58546638D01*
X123099969Y-58524806D01*
X122842006Y-58535123D01*
X122624931Y-58577927D01*
X122584378Y-58592863D01*
X122359362Y-58726104D01*
X122140126Y-58922355D01*
X121961865Y-59147377D01*
X121899494Y-59259135D01*
X121811388Y-59551549D01*
X121794287Y-59875196D01*
X121491606Y-59875196D01*
X121488200Y-59794986D01*
X121519890Y-59450904D01*
G36*
X118236999Y-65176400D02*
G01*
X118432181Y-65185428D01*
X118558248Y-65217732D01*
X118643399Y-65278000D01*
X118726633Y-65377731D01*
X118733606Y-65459220D01*
X118676529Y-65555420D01*
X118636459Y-65636813D01*
X118670322Y-65709397D01*
X118701929Y-65742929D01*
X118783621Y-65864713D01*
X118772087Y-65985883D01*
X118671109Y-66118509D01*
X118581055Y-66191324D01*
X118474470Y-66229185D01*
X118315490Y-66242451D01*
X118239309Y-66243200D01*
X117932200Y-66243200D01*
X117932200Y-65887600D01*
X118186200Y-65887600D01*
X118198964Y-65995686D01*
X118257944Y-66035493D01*
X118333164Y-66040000D01*
X118459204Y-66012109D01*
X118511841Y-65957361D01*
X118509335Y-65847104D01*
X118429051Y-65764529D01*
X118306979Y-65735200D01*
X118220334Y-65752952D01*
X118188777Y-65826251D01*
X118186200Y-65887600D01*
X117932200Y-65887600D01*
X117932200Y-65481200D01*
X118186200Y-65481200D01*
X118223316Y-65560846D01*
X118309408Y-65582667D01*
X118406591Y-65541545D01*
X118433539Y-65514625D01*
X118464582Y-65435080D01*
X118402274Y-65389365D01*
X118304733Y-65379600D01*
X118209558Y-65407063D01*
X118186200Y-65481200D01*
X117932200Y-65481200D01*
X117932200Y-65176400D01*
X118236999Y-65176400D01*
G37*
X118236999Y-65176400D02*
X118432181Y-65185428D01*
X118558248Y-65217732D01*
X118643399Y-65278000D01*
X118726633Y-65377731D01*
X118733606Y-65459220D01*
X118676529Y-65555420D01*
X118636459Y-65636813D01*
X118670322Y-65709397D01*
X118701929Y-65742929D01*
X118783621Y-65864713D01*
X118772087Y-65985883D01*
X118671109Y-66118509D01*
X118581055Y-66191324D01*
X118474470Y-66229185D01*
X118315490Y-66242451D01*
X118239309Y-66243200D01*
X117932200Y-66243200D01*
X117932200Y-65887600D01*
X118186200Y-65887600D01*
X118198964Y-65995686D01*
X118257944Y-66035493D01*
X118333164Y-66040000D01*
X118459204Y-66012109D01*
X118511841Y-65957361D01*
X118509335Y-65847104D01*
X118429051Y-65764529D01*
X118306979Y-65735200D01*
X118220334Y-65752952D01*
X118188777Y-65826251D01*
X118186200Y-65887600D01*
X117932200Y-65887600D01*
X117932200Y-65481200D01*
X118186200Y-65481200D01*
X118223316Y-65560846D01*
X118309408Y-65582667D01*
X118406591Y-65541545D01*
X118433539Y-65514625D01*
X118464582Y-65435080D01*
X118402274Y-65389365D01*
X118304733Y-65379600D01*
X118209558Y-65407063D01*
X118186200Y-65481200D01*
X117932200Y-65481200D01*
X117932200Y-65176400D01*
X118236999Y-65176400D01*
G36*
X123099458Y-62494088D02*
G01*
X123302818Y-62516741D01*
X123440660Y-62561057D01*
X123548550Y-62638483D01*
X123548785Y-62638703D01*
X123715565Y-62838840D01*
X123803180Y-63066381D01*
X123825000Y-63307769D01*
X123787732Y-63603361D01*
X123673511Y-63835197D01*
X123478707Y-64009848D01*
X123417958Y-64044833D01*
X123155768Y-64141639D01*
X122904905Y-64142698D01*
X122721100Y-64085084D01*
X122592258Y-63997057D01*
X122469416Y-63863181D01*
X122380363Y-63718899D01*
X122351989Y-63614300D01*
X122398728Y-63569092D01*
X122528361Y-63550923D01*
X122542953Y-63550800D01*
X122684058Y-63566194D01*
X122761660Y-63623400D01*
X122784253Y-63665100D01*
X122859616Y-63753777D01*
X123000331Y-63792995D01*
X123020318Y-63794893D01*
X123204490Y-63777208D01*
X123329464Y-63684790D01*
X123399365Y-63512381D01*
X123418600Y-63287221D01*
X123390873Y-63039956D01*
X123308423Y-62875786D01*
X123172349Y-62796427D01*
X123099703Y-62788800D01*
X122960765Y-62818074D01*
X122845044Y-62890430D01*
X122782133Y-62982672D01*
X122782019Y-63037819D01*
X122765204Y-63140535D01*
X122682472Y-63245556D01*
X122555000Y-63365310D01*
X122415300Y-63242155D01*
X122317384Y-63157237D01*
X122256336Y-63106869D01*
X122251671Y-63103537D01*
X122262785Y-63068105D01*
X122282682Y-63052737D01*
X122341667Y-62986238D01*
X122412480Y-62870987D01*
X122419896Y-62856785D01*
X122553879Y-62656604D01*
X122718835Y-62539048D01*
X122936268Y-62492642D01*
X123099458Y-62494088D01*
G37*
X123099458Y-62494088D02*
X123302818Y-62516741D01*
X123440660Y-62561057D01*
X123548550Y-62638483D01*
X123548785Y-62638703D01*
X123715565Y-62838840D01*
X123803180Y-63066381D01*
X123825000Y-63307769D01*
X123787732Y-63603361D01*
X123673511Y-63835197D01*
X123478707Y-64009848D01*
X123417958Y-64044833D01*
X123155768Y-64141639D01*
X122904905Y-64142698D01*
X122721100Y-64085084D01*
X122592258Y-63997057D01*
X122469416Y-63863181D01*
X122380363Y-63718899D01*
X122351989Y-63614300D01*
X122398728Y-63569092D01*
X122528361Y-63550923D01*
X122542953Y-63550800D01*
X122684058Y-63566194D01*
X122761660Y-63623400D01*
X122784253Y-63665100D01*
X122859616Y-63753777D01*
X123000331Y-63792995D01*
X123020318Y-63794893D01*
X123204490Y-63777208D01*
X123329464Y-63684790D01*
X123399365Y-63512381D01*
X123418600Y-63287221D01*
X123390873Y-63039956D01*
X123308423Y-62875786D01*
X123172349Y-62796427D01*
X123099703Y-62788800D01*
X122960765Y-62818074D01*
X122845044Y-62890430D01*
X122782133Y-62982672D01*
X122782019Y-63037819D01*
X122765204Y-63140535D01*
X122682472Y-63245556D01*
X122555000Y-63365310D01*
X122415300Y-63242155D01*
X122317384Y-63157237D01*
X122256336Y-63106869D01*
X122251671Y-63103537D01*
X122262785Y-63068105D01*
X122282682Y-63052737D01*
X122341667Y-62986238D01*
X122412480Y-62870987D01*
X122419896Y-62856785D01*
X122553879Y-62656604D01*
X122718835Y-62539048D01*
X122936268Y-62492642D01*
X123099458Y-62494088D01*
G36*
X120492503Y-65202212D02*
G01*
X120576087Y-65293776D01*
X120626088Y-65382516D01*
X120715190Y-65550331D01*
X120804853Y-65709109D01*
X120823723Y-65740708D01*
X120916205Y-65892782D01*
X120890576Y-65534591D01*
X120864948Y-65176400D01*
X121132600Y-65176400D01*
X121132600Y-66249948D01*
X120992900Y-66233874D01*
X120911439Y-66209546D01*
X120836428Y-66144855D01*
X120751201Y-66021085D01*
X120661902Y-65862200D01*
X120470604Y-65506600D01*
X120503366Y-65874900D01*
X120536127Y-66243200D01*
X120269000Y-66243200D01*
X120269000Y-65176400D01*
X120394967Y-65176400D01*
X120492503Y-65202212D01*
G37*
X120492503Y-65202212D02*
X120576087Y-65293776D01*
X120626088Y-65382516D01*
X120715190Y-65550331D01*
X120804853Y-65709109D01*
X120823723Y-65740708D01*
X120916205Y-65892782D01*
X120890576Y-65534591D01*
X120864948Y-65176400D01*
X121132600Y-65176400D01*
X121132600Y-66249948D01*
X120992900Y-66233874D01*
X120911439Y-66209546D01*
X120836428Y-66144855D01*
X120751201Y-66021085D01*
X120661902Y-65862200D01*
X120470604Y-65506600D01*
X120503366Y-65874900D01*
X120536127Y-66243200D01*
X120269000Y-66243200D01*
X120269000Y-65176400D01*
X120394967Y-65176400D01*
X120492503Y-65202212D01*
D12*
X145281955Y-82658949D02*
X143401051Y-80778045D01*
X141562574Y-82616522D02*
X143401051Y-80778045D01*
X143443478Y-84497426D02*
X141562574Y-82616522D01*
X141605000Y-86335904D02*
X140664548Y-85395452D01*
X143443478Y-84497426D02*
X145281955Y-82658949D01*
X142545452Y-85395452D02*
X141605000Y-86335904D01*
X139654718Y-80285835D02*
X139975835Y-79964718D01*
X140694165Y-81325282D02*
X141015282Y-81004165D01*
%LPC*%
D15*
X89475952Y-146338333D02*
X90428333Y-146338333D01*
X89285476Y-146909761D02*
X89952142Y-144909761D01*
X90618809Y-146909761D01*
X92333095Y-146909761D02*
X91190238Y-146909761D01*
X91761666Y-146909761D02*
X91761666Y-144909761D01*
X91571190Y-145195476D01*
X91380714Y-145385952D01*
X91190238Y-145481190D01*
X93095000Y-145100238D02*
X93190238Y-145005000D01*
X93380714Y-144909761D01*
X93856904Y-144909761D01*
X94047380Y-145005000D01*
X94142619Y-145100238D01*
X94237857Y-145290714D01*
X94237857Y-145481190D01*
X94142619Y-145766904D01*
X92999761Y-146909761D01*
X94237857Y-146909761D01*
X95475952Y-144909761D02*
X95666428Y-144909761D01*
X95856904Y-145005000D01*
X95952142Y-145100238D01*
X96047380Y-145290714D01*
X96142619Y-145671666D01*
X96142619Y-146147857D01*
X96047380Y-146528809D01*
X95952142Y-146719285D01*
X95856904Y-146814523D01*
X95666428Y-146909761D01*
X95475952Y-146909761D01*
X95285476Y-146814523D01*
X95190238Y-146719285D01*
X95095000Y-146528809D01*
X94999761Y-146147857D01*
X94999761Y-145671666D01*
X95095000Y-145290714D01*
X95190238Y-145100238D01*
X95285476Y-145005000D01*
X95475952Y-144909761D01*
X97380714Y-144909761D02*
X97571190Y-144909761D01*
X97761666Y-145005000D01*
X97856904Y-145100238D01*
X97952142Y-145290714D01*
X98047380Y-145671666D01*
X98047380Y-146147857D01*
X97952142Y-146528809D01*
X97856904Y-146719285D01*
X97761666Y-146814523D01*
X97571190Y-146909761D01*
X97380714Y-146909761D01*
X97190238Y-146814523D01*
X97095000Y-146719285D01*
X96999761Y-146528809D01*
X96904523Y-146147857D01*
X96904523Y-145671666D01*
X96999761Y-145290714D01*
X97095000Y-145100238D01*
X97190238Y-145005000D01*
X97380714Y-144909761D01*
X90237857Y-149082142D02*
X89571190Y-149082142D01*
X89571190Y-150129761D02*
X89571190Y-148129761D01*
X90523571Y-148129761D01*
X92142619Y-150129761D02*
X92142619Y-149082142D01*
X92047380Y-148891666D01*
X91856904Y-148796428D01*
X91475952Y-148796428D01*
X91285476Y-148891666D01*
X92142619Y-150034523D02*
X91952142Y-150129761D01*
X91475952Y-150129761D01*
X91285476Y-150034523D01*
X91190238Y-149844047D01*
X91190238Y-149653571D01*
X91285476Y-149463095D01*
X91475952Y-149367857D01*
X91952142Y-149367857D01*
X92142619Y-149272619D01*
X92999761Y-150034523D02*
X93285476Y-150129761D01*
X93761666Y-150129761D01*
X93952142Y-150034523D01*
X94047380Y-149939285D01*
X94142619Y-149748809D01*
X94142619Y-149558333D01*
X94047380Y-149367857D01*
X93952142Y-149272619D01*
X93761666Y-149177380D01*
X93380714Y-149082142D01*
X93190238Y-148986904D01*
X93095000Y-148891666D01*
X92999761Y-148701190D01*
X92999761Y-148510714D01*
X93095000Y-148320238D01*
X93190238Y-148225000D01*
X93380714Y-148129761D01*
X93856904Y-148129761D01*
X94142619Y-148225000D01*
X94714047Y-148796428D02*
X95475952Y-148796428D01*
X94999761Y-148129761D02*
X94999761Y-149844047D01*
X95095000Y-150034523D01*
X95285476Y-150129761D01*
X95475952Y-150129761D01*
X97285476Y-150129761D02*
X96618809Y-149177380D01*
X96142619Y-150129761D02*
X96142619Y-148129761D01*
X96904523Y-148129761D01*
X97095000Y-148225000D01*
X97190238Y-148320238D01*
X97285476Y-148510714D01*
X97285476Y-148796428D01*
X97190238Y-148986904D01*
X97095000Y-149082142D01*
X96904523Y-149177380D01*
X96142619Y-149177380D01*
X98047380Y-149558333D02*
X98999761Y-149558333D01*
X97856904Y-150129761D02*
X98523571Y-148129761D01*
X99190238Y-150129761D01*
X99856904Y-150129761D02*
X99856904Y-148129761D01*
X100523571Y-149558333D01*
X101190238Y-148129761D01*
X101190238Y-150129761D01*
X89571190Y-152302142D02*
X90237857Y-152302142D01*
X90523571Y-153349761D02*
X89571190Y-153349761D01*
X89571190Y-151349761D01*
X90523571Y-151349761D01*
X91190238Y-153349761D02*
X92237857Y-152016428D01*
X91190238Y-152016428D02*
X92237857Y-153349761D01*
X92999761Y-152016428D02*
X92999761Y-154016428D01*
X92999761Y-152111666D02*
X93190238Y-152016428D01*
X93571190Y-152016428D01*
X93761666Y-152111666D01*
X93856904Y-152206904D01*
X93952142Y-152397380D01*
X93952142Y-152968809D01*
X93856904Y-153159285D01*
X93761666Y-153254523D01*
X93571190Y-153349761D01*
X93190238Y-153349761D01*
X92999761Y-153254523D01*
X95666428Y-153349761D02*
X95666428Y-152302142D01*
X95571190Y-152111666D01*
X95380714Y-152016428D01*
X94999761Y-152016428D01*
X94809285Y-152111666D01*
X95666428Y-153254523D02*
X95475952Y-153349761D01*
X94999761Y-153349761D01*
X94809285Y-153254523D01*
X94714047Y-153064047D01*
X94714047Y-152873571D01*
X94809285Y-152683095D01*
X94999761Y-152587857D01*
X95475952Y-152587857D01*
X95666428Y-152492619D01*
X96618809Y-152016428D02*
X96618809Y-153349761D01*
X96618809Y-152206904D02*
X96714047Y-152111666D01*
X96904523Y-152016428D01*
X97190238Y-152016428D01*
X97380714Y-152111666D01*
X97475952Y-152302142D01*
X97475952Y-153349761D01*
X98333095Y-153254523D02*
X98523571Y-153349761D01*
X98904523Y-153349761D01*
X99095000Y-153254523D01*
X99190238Y-153064047D01*
X99190238Y-152968809D01*
X99095000Y-152778333D01*
X98904523Y-152683095D01*
X98618809Y-152683095D01*
X98428333Y-152587857D01*
X98333095Y-152397380D01*
X98333095Y-152302142D01*
X98428333Y-152111666D01*
X98618809Y-152016428D01*
X98904523Y-152016428D01*
X99095000Y-152111666D01*
X100047380Y-153349761D02*
X100047380Y-152016428D01*
X100047380Y-151349761D02*
X99952142Y-151445000D01*
X100047380Y-151540238D01*
X100142619Y-151445000D01*
X100047380Y-151349761D01*
X100047380Y-151540238D01*
X101285476Y-153349761D02*
X101095000Y-153254523D01*
X100999761Y-153159285D01*
X100904523Y-152968809D01*
X100904523Y-152397380D01*
X100999761Y-152206904D01*
X101095000Y-152111666D01*
X101285476Y-152016428D01*
X101571190Y-152016428D01*
X101761666Y-152111666D01*
X101856904Y-152206904D01*
X101952142Y-152397380D01*
X101952142Y-152968809D01*
X101856904Y-153159285D01*
X101761666Y-153254523D01*
X101571190Y-153349761D01*
X101285476Y-153349761D01*
X102809285Y-152016428D02*
X102809285Y-153349761D01*
X102809285Y-152206904D02*
X102904523Y-152111666D01*
X103095000Y-152016428D01*
X103380714Y-152016428D01*
X103571190Y-152111666D01*
X103666428Y-152302142D01*
X103666428Y-153349761D01*
D16*
X117184249Y-78385749D03*
X118527751Y-79729251D03*
X117057249Y-151093249D03*
X118400751Y-152436751D03*
D17*
X142403751Y-64552751D03*
X141060249Y-63209249D03*
D18*
X86360000Y-57150000D03*
D19*
X82296000Y-57150000D03*
X84328000Y-58420000D03*
X80264000Y-58420000D03*
X86360000Y-59690000D03*
X82296000Y-59690000D03*
X84328000Y-60960000D03*
X80264000Y-60960000D03*
X86360000Y-62230000D03*
X82296000Y-62230000D03*
X84328000Y-63500000D03*
X80264000Y-63500000D03*
X86360000Y-64770000D03*
X82296000Y-64770000D03*
X84328000Y-66040000D03*
X80264000Y-66040000D03*
X86360000Y-67310000D03*
X82296000Y-67310000D03*
X84328000Y-68580000D03*
X80264000Y-68580000D03*
X86360000Y-69850000D03*
X82296000Y-69850000D03*
X84328000Y-71120000D03*
X80264000Y-71120000D03*
X86360000Y-72390000D03*
X82296000Y-72390000D03*
X84328000Y-73660000D03*
X80264000Y-73660000D03*
X86360000Y-74930000D03*
X82296000Y-74930000D03*
X84328000Y-76200000D03*
X80264000Y-76200000D03*
X86360000Y-77470000D03*
X82296000Y-77470000D03*
X84328000Y-78740000D03*
X80264000Y-78740000D03*
X86360000Y-80010000D03*
X82296000Y-80010000D03*
X84328000Y-81280000D03*
X80264000Y-81280000D03*
X86360000Y-82550000D03*
X82296000Y-82550000D03*
X84328000Y-83820000D03*
X80264000Y-83820000D03*
X86360000Y-85090000D03*
X82296000Y-85090000D03*
X84328000Y-86360000D03*
X80264000Y-86360000D03*
X86360000Y-87630000D03*
X82296000Y-87630000D03*
X84328000Y-91440000D03*
X80264000Y-91440000D03*
X86360000Y-92710000D03*
X82296000Y-92710000D03*
X84328000Y-93980000D03*
X80264000Y-93980000D03*
X86360000Y-95250000D03*
X82296000Y-95250000D03*
X84328000Y-96520000D03*
X80264000Y-96520000D03*
X86360000Y-97790000D03*
X82296000Y-97790000D03*
X84328000Y-99060000D03*
X80264000Y-99060000D03*
X86360000Y-100330000D03*
X82296000Y-100330000D03*
X84328000Y-101600000D03*
X80264000Y-101600000D03*
X86360000Y-102870000D03*
X82296000Y-102870000D03*
X84328000Y-104140000D03*
X80264000Y-104140000D03*
X86360000Y-105410000D03*
X82296000Y-105410000D03*
X84328000Y-106680000D03*
X80264000Y-106680000D03*
X86360000Y-107950000D03*
X82296000Y-107950000D03*
X84328000Y-109220000D03*
X80264000Y-109220000D03*
X86360000Y-110490000D03*
X82296000Y-110490000D03*
X84328000Y-111760000D03*
X80264000Y-111760000D03*
X86360000Y-113030000D03*
X82296000Y-113030000D03*
X84328000Y-114300000D03*
X80264000Y-114300000D03*
X86360000Y-115570000D03*
X82296000Y-115570000D03*
X84328000Y-116840000D03*
X80264000Y-116840000D03*
X86360000Y-118110000D03*
X82296000Y-118110000D03*
X84328000Y-119380000D03*
X80264000Y-119380000D03*
X86360000Y-120650000D03*
X82296000Y-120650000D03*
X84328000Y-121920000D03*
X80264000Y-121920000D03*
X86360000Y-123190000D03*
X82296000Y-123190000D03*
X84328000Y-124460000D03*
X80264000Y-124460000D03*
X86360000Y-125730000D03*
X82296000Y-125730000D03*
X84328000Y-127000000D03*
X80264000Y-127000000D03*
X86360000Y-128270000D03*
X82296000Y-128270000D03*
X84328000Y-129540000D03*
X80264000Y-129540000D03*
X86360000Y-130810000D03*
X82296000Y-130810000D03*
X84328000Y-132080000D03*
X80264000Y-132080000D03*
X86360000Y-133350000D03*
X82296000Y-133350000D03*
X84328000Y-134620000D03*
X80264000Y-134620000D03*
X86360000Y-135890000D03*
X82296000Y-135890000D03*
X84328000Y-137160000D03*
X80264000Y-137160000D03*
X86360000Y-138430000D03*
X82296000Y-138430000D03*
X84328000Y-139700000D03*
X80264000Y-139700000D03*
X86360000Y-140970000D03*
X82296000Y-140970000D03*
X84328000Y-142240000D03*
X80264000Y-142240000D03*
X86360000Y-143510000D03*
X82296000Y-143510000D03*
X84328000Y-144780000D03*
X80264000Y-144780000D03*
X86360000Y-146050000D03*
X82296000Y-146050000D03*
X84328000Y-147320000D03*
X80264000Y-147320000D03*
X86360000Y-148590000D03*
X82296000Y-148590000D03*
X84328000Y-149860000D03*
X80264000Y-149860000D03*
X86360000Y-151130000D03*
X82296000Y-151130000D03*
X84328000Y-152400000D03*
X80264000Y-152400000D03*
X86360000Y-153670000D03*
X82296000Y-153670000D03*
D20*
X135795565Y-76682419D03*
X136361250Y-76116734D03*
X136926936Y-75551048D03*
X137492621Y-74985363D03*
X138058307Y-74419678D03*
X138623992Y-73853992D03*
X139189678Y-73288307D03*
X139755363Y-72722621D03*
X140321048Y-72156936D03*
X140886734Y-71591250D03*
X141452419Y-71025565D03*
D21*
X141452419Y-68674435D03*
X140886734Y-68108750D03*
X140321048Y-67543064D03*
X139755363Y-66977379D03*
X139189678Y-66411693D03*
X138623992Y-65846008D03*
X138058307Y-65280322D03*
X137492621Y-64714637D03*
X136926936Y-64148952D03*
X136361250Y-63583266D03*
X135795565Y-63017581D03*
D20*
X133444435Y-63017581D03*
X132878750Y-63583266D03*
X132313064Y-64148952D03*
X131747379Y-64714637D03*
X131181693Y-65280322D03*
X130616008Y-65846008D03*
X130050322Y-66411693D03*
X129484637Y-66977379D03*
X128918952Y-67543064D03*
X128353266Y-68108750D03*
X127787581Y-68674435D03*
D21*
X127787581Y-71025565D03*
X128353266Y-71591250D03*
X128918952Y-72156936D03*
X129484637Y-72722621D03*
X130050322Y-73288307D03*
X130616008Y-73853992D03*
X131181693Y-74419678D03*
X131747379Y-74985363D03*
X132313064Y-75551048D03*
X132878750Y-76116734D03*
X133444435Y-76682419D03*
D22*
X105121573Y-57619845D03*
X104768019Y-57973398D03*
X104414466Y-58326952D03*
X104060913Y-58680505D03*
X103707359Y-59034058D03*
X103353806Y-59387612D03*
X103000253Y-59741165D03*
X102646699Y-60094719D03*
X102293146Y-60448272D03*
X101939592Y-60801825D03*
X101586039Y-61155379D03*
X101232486Y-61508932D03*
X100878932Y-61862486D03*
X100525379Y-62216039D03*
X100171825Y-62569592D03*
X99818272Y-62923146D03*
X99464719Y-63276699D03*
X99111165Y-63630253D03*
X98757612Y-63983806D03*
X98404058Y-64337359D03*
X98050505Y-64690913D03*
X97696952Y-65044466D03*
X97343398Y-65398019D03*
X96989845Y-65751573D03*
X110778427Y-79540155D03*
X111131981Y-79186602D03*
X111485534Y-78833048D03*
X111839087Y-78479495D03*
X112192641Y-78125942D03*
X112546194Y-77772388D03*
X112899747Y-77418835D03*
X113253301Y-77065281D03*
X113606854Y-76711728D03*
X113960408Y-76358175D03*
X114313961Y-76004621D03*
X114667514Y-75651068D03*
X115021068Y-75297514D03*
X115374621Y-74943961D03*
X115728175Y-74590408D03*
X116081728Y-74236854D03*
X116435281Y-73883301D03*
X116788835Y-73529747D03*
X117142388Y-73176194D03*
X117495942Y-72822641D03*
X117849495Y-72469087D03*
X118203048Y-72115534D03*
X118556602Y-71761981D03*
X118910155Y-71408427D03*
X105121573Y-112864845D03*
X104768019Y-113218398D03*
X104414466Y-113571952D03*
X104060913Y-113925505D03*
X103707359Y-114279058D03*
X103353806Y-114632612D03*
X103000253Y-114986165D03*
X102646699Y-115339719D03*
X102293146Y-115693272D03*
X101939592Y-116046825D03*
X101586039Y-116400379D03*
X101232486Y-116753932D03*
X100878932Y-117107486D03*
X100525379Y-117461039D03*
X100171825Y-117814592D03*
X99818272Y-118168146D03*
X99464719Y-118521699D03*
X99111165Y-118875253D03*
X98757612Y-119228806D03*
X98404058Y-119582359D03*
X98050505Y-119935913D03*
X97696952Y-120289466D03*
X97343398Y-120643019D03*
X96989845Y-120996573D03*
X110778427Y-134785155D03*
X111131981Y-134431602D03*
X111485534Y-134078048D03*
X111839087Y-133724495D03*
X112192641Y-133370942D03*
X112546194Y-133017388D03*
X112899747Y-132663835D03*
X113253301Y-132310281D03*
X113606854Y-131956728D03*
X113960408Y-131603175D03*
X114313961Y-131249621D03*
X114667514Y-130896068D03*
X115021068Y-130542514D03*
X115374621Y-130188961D03*
X115728175Y-129835408D03*
X116081728Y-129481854D03*
X116435281Y-129128301D03*
X116788835Y-128774747D03*
X117142388Y-128421194D03*
X117495942Y-128067641D03*
X117849495Y-127714087D03*
X118203048Y-127360534D03*
X118556602Y-127006981D03*
X118910155Y-126653427D03*
X105121573Y-76034845D03*
X104768019Y-76388398D03*
X104414466Y-76741952D03*
X104060913Y-77095505D03*
X103707359Y-77449058D03*
X103353806Y-77802612D03*
X103000253Y-78156165D03*
X102646699Y-78509719D03*
X102293146Y-78863272D03*
X101939592Y-79216825D03*
X101586039Y-79570379D03*
X101232486Y-79923932D03*
X100878932Y-80277486D03*
X100525379Y-80631039D03*
X100171825Y-80984592D03*
X99818272Y-81338146D03*
X99464719Y-81691699D03*
X99111165Y-82045253D03*
X98757612Y-82398806D03*
X98404058Y-82752359D03*
X98050505Y-83105913D03*
X97696952Y-83459466D03*
X97343398Y-83813019D03*
X96989845Y-84166573D03*
X110778427Y-97955155D03*
X111131981Y-97601602D03*
X111485534Y-97248048D03*
X111839087Y-96894495D03*
X112192641Y-96540942D03*
X112546194Y-96187388D03*
X112899747Y-95833835D03*
X113253301Y-95480281D03*
X113606854Y-95126728D03*
X113960408Y-94773175D03*
X114313961Y-94419621D03*
X114667514Y-94066068D03*
X115021068Y-93712514D03*
X115374621Y-93358961D03*
X115728175Y-93005408D03*
X116081728Y-92651854D03*
X116435281Y-92298301D03*
X116788835Y-91944747D03*
X117142388Y-91591194D03*
X117495942Y-91237641D03*
X117849495Y-90884087D03*
X118203048Y-90530534D03*
X118556602Y-90176981D03*
X118910155Y-89823427D03*
X105121573Y-131279845D03*
X104768019Y-131633398D03*
X104414466Y-131986952D03*
X104060913Y-132340505D03*
X103707359Y-132694058D03*
X103353806Y-133047612D03*
X103000253Y-133401165D03*
X102646699Y-133754719D03*
X102293146Y-134108272D03*
X101939592Y-134461825D03*
X101586039Y-134815379D03*
X101232486Y-135168932D03*
X100878932Y-135522486D03*
X100525379Y-135876039D03*
X100171825Y-136229592D03*
X99818272Y-136583146D03*
X99464719Y-136936699D03*
X99111165Y-137290253D03*
X98757612Y-137643806D03*
X98404058Y-137997359D03*
X98050505Y-138350913D03*
X97696952Y-138704466D03*
X97343398Y-139058019D03*
X96989845Y-139411573D03*
X110778427Y-153200155D03*
X111131981Y-152846602D03*
X111485534Y-152493048D03*
X111839087Y-152139495D03*
X112192641Y-151785942D03*
X112546194Y-151432388D03*
X112899747Y-151078835D03*
X113253301Y-150725281D03*
X113606854Y-150371728D03*
X113960408Y-150018175D03*
X114313961Y-149664621D03*
X114667514Y-149311068D03*
X115021068Y-148957514D03*
X115374621Y-148603961D03*
X115728175Y-148250408D03*
X116081728Y-147896854D03*
X116435281Y-147543301D03*
X116788835Y-147189747D03*
X117142388Y-146836194D03*
X117495942Y-146482641D03*
X117849495Y-146129087D03*
X118203048Y-145775534D03*
X118556602Y-145421981D03*
X118910155Y-145068427D03*
X105121573Y-94449845D03*
X104768019Y-94803398D03*
X104414466Y-95156952D03*
X104060913Y-95510505D03*
X103707359Y-95864058D03*
X103353806Y-96217612D03*
X103000253Y-96571165D03*
X102646699Y-96924719D03*
X102293146Y-97278272D03*
X101939592Y-97631825D03*
X101586039Y-97985379D03*
X101232486Y-98338932D03*
X100878932Y-98692486D03*
X100525379Y-99046039D03*
X100171825Y-99399592D03*
X99818272Y-99753146D03*
X99464719Y-100106699D03*
X99111165Y-100460253D03*
X98757612Y-100813806D03*
X98404058Y-101167359D03*
X98050505Y-101520913D03*
X97696952Y-101874466D03*
X97343398Y-102228019D03*
X96989845Y-102581573D03*
X110778427Y-116370155D03*
X111131981Y-116016602D03*
X111485534Y-115663048D03*
X111839087Y-115309495D03*
X112192641Y-114955942D03*
X112546194Y-114602388D03*
X112899747Y-114248835D03*
X113253301Y-113895281D03*
X113606854Y-113541728D03*
X113960408Y-113188175D03*
X114313961Y-112834621D03*
X114667514Y-112481068D03*
X115021068Y-112127514D03*
X115374621Y-111773961D03*
X115728175Y-111420408D03*
X116081728Y-111066854D03*
X116435281Y-110713301D03*
X116788835Y-110359747D03*
X117142388Y-110006194D03*
X117495942Y-109652641D03*
X117849495Y-109299087D03*
X118203048Y-108945534D03*
X118556602Y-108591981D03*
X118910155Y-108238427D03*
D16*
X117120749Y-115215749D03*
X118464251Y-116559251D03*
X117120749Y-133630749D03*
X118464251Y-134974251D03*
X117120749Y-96800749D03*
X118464251Y-98144251D03*
D23*
X132037500Y-83505000D03*
X132037500Y-84455000D03*
X132037500Y-85405000D03*
X134312500Y-85405000D03*
X134312500Y-83505000D03*
D24*
X133197600Y-84429600D03*
X134541103Y-83086097D03*
X132455138Y-82343635D03*
D16*
X128261162Y-83811162D03*
X129604664Y-85154664D03*
X125248749Y-74702749D03*
X126592251Y-76046251D03*
X134611162Y-80001162D03*
X135954664Y-81344664D03*
D25*
X145415000Y-76200000D03*
D26*
X145415000Y-73660000D03*
X145415000Y-71120000D03*
X145415000Y-68580000D03*
X145415000Y-66040000D03*
X145415000Y-63500000D03*
D27*
X128868249Y-62647751D03*
X130211751Y-61304249D03*
D28*
X141605000Y-84455000D03*
D29*
X143401051Y-82658949D03*
D30*
X139689765Y-81290235D03*
X140980235Y-79999765D03*
M02*
