M48
; DRILL file {KiCad 6.0.8-f2edbf62ab~116~ubuntu22.04.1} date mer. 12 oct. 2022 19:56:11
; FORMAT={-:-/ absolute / metric / decimal}
; #@! TF.CreationDate,2022-10-12T19:56:11+02:00
; #@! TF.GenerationSoftware,Kicad,Pcbnew,6.0.8-f2edbf62ab~116~ubuntu22.04.1
; #@! TF.FileFunction,Plated,1,2,PTH
FMAT,2
METRIC
; #@! TA.AperFunction,Plated,PTH,ViaDrill
T1C0.400
; #@! TA.AperFunction,Plated,PTH,ComponentDrill
T2C0.800
; #@! TA.AperFunction,Plated,PTH,ComponentDrill
T3C1.000
%
G90
G05
T1
X88.265Y-71.755
X88.265Y-78.74
X88.265Y-90.096
X88.265Y-99.06
X88.265Y-101.6
X88.265Y-106.68
X88.709Y-109.855
X88.9Y-111.823
X88.9Y-113.03
X88.9Y-114.3
X88.9Y-115.57
X88.9Y-119.38
X88.9Y-120.65
X89.535Y-69.215
X90.17Y-71.755
X90.805Y-73.025
X91.44Y-73.66
X91.44Y-84.238
X92.239Y-116.268
X92.265Y-84.645
X92.689Y-114.3
X92.901Y-86.106
X93.027Y-85.09
X93.31Y-134.585
X93.408Y-79.311
X93.472Y-86.804
X93.935Y-133.985
X94.121Y-87.469
X94.143Y-78.74
X94.615Y-62.865
X94.805Y-78.041
X95.25Y-60.96
X95.441Y-77.203
X96.075Y-76.391
X96.71Y-75.565
X97.346Y-74.93
X97.79Y-61.719
X97.98Y-71.12
X98.425Y-62.23
X98.615Y-74.295
X98.794Y-116.26
X98.933Y-114.427
X99.695Y-133.985
X99.758Y-116.205
X100.838Y-71.12
X101.6Y-87.565
X101.663Y-72.39
X102.101Y-86.93
X102.425Y-118.097
X104.42Y-70.475
X105.219Y-69.85
X105.862Y-67.955
X106.489Y-68.58
X107.124Y-67.374
X107.75Y-66.675
X108.375Y-66.04
X109.22Y-65.405
X109.393Y-89.922
X109.559Y-132.032
X109.855Y-64.142
X110.236Y-119.316
X110.393Y-131.057
X111.061Y-119.316
X111.241Y-130.096
X111.877Y-119.317
X112.136Y-129.182
X112.336Y-83.376
X112.395Y-64.77
X112.677Y-119.314
X112.903Y-89.218
X114.03Y-128.667
X114.046Y-116.205
X114.109Y-119.314
X114.503Y-127.063
X114.617Y-82.995
X114.935Y-116.205
X115.069Y-119.316
X115.57Y-114.3
X115.57Y-115.57
X115.753Y-127.071
X115.951Y-119.316
X115.995Y-82.188
X116.641Y-126.15
X116.84Y-112.84
X116.84Y-119.316
X117.665Y-81.153
X117.665Y-99.568
X117.665Y-136.398
X117.852Y-89.222
X118.11Y-111.76
X118.11Y-113.03
X119.38Y-111.76
X119.38Y-117.475
X120.015Y-109.22
X120.015Y-150.812
X120.465Y-79.825
X121.568Y-80.806
X122.555Y-65.405
X122.555Y-88.265
X122.739Y-78.75
X122.868Y-89.222
X123.19Y-66.04
X123.825Y-66.675
X123.989Y-79.264
X124.333Y-75.882
X124.46Y-67.31
X125.095Y-67.945
X125.73Y-68.58
X126.365Y-69.215
X126.365Y-71.755
X126.365Y-81.28
X127.635Y-74.93
X128.27Y-59.69
X128.27Y-75.565
X128.27Y-78.74
X128.905Y-76.2
X129.54Y-76.835
X130.175Y-77.47
X130.81Y-78.105
X131.445Y-78.74
X132.08Y-79.375
X132.08Y-86.995
X132.715Y-60.96
X132.715Y-71.755
X132.715Y-80.01
X135.783Y-77.998
X137.19Y-61.605
X137.272Y-80.01
X137.48Y-83.505
X137.759Y-62.188
X137.986Y-77.724
X138.02Y-76.644
X138.28Y-62.796
X138.886Y-63.321
X139.204Y-75.565
X139.452Y-63.887
X139.7Y-61.595
X139.7Y-74.93
X140.335Y-74.434
X140.583Y-65.018
X140.97Y-73.937
X141.715Y-66.15
X142.28Y-66.715
X142.846Y-67.281
T2
X80.264Y-58.42
X80.264Y-60.96
X80.264Y-63.5
X80.264Y-66.04
X80.264Y-68.58
X80.264Y-71.12
X80.264Y-73.66
X80.264Y-76.2
X80.264Y-78.74
X80.264Y-81.28
X80.264Y-83.82
X80.264Y-86.36
X80.264Y-91.44
X80.264Y-93.98
X80.264Y-96.52
X80.264Y-99.06
X80.264Y-101.6
X80.264Y-104.14
X80.264Y-106.68
X80.264Y-109.22
X80.264Y-111.76
X80.264Y-114.3
X80.264Y-116.84
X80.264Y-119.38
X80.264Y-121.92
X80.264Y-124.46
X80.264Y-127.0
X80.264Y-129.54
X80.264Y-132.08
X80.264Y-134.62
X80.264Y-137.16
X80.264Y-139.7
X80.264Y-142.24
X80.264Y-144.78
X80.264Y-147.32
X80.264Y-149.86
X80.264Y-152.4
X82.296Y-57.15
X82.296Y-59.69
X82.296Y-62.23
X82.296Y-64.77
X82.296Y-67.31
X82.296Y-69.85
X82.296Y-72.39
X82.296Y-74.93
X82.296Y-77.47
X82.296Y-80.01
X82.296Y-82.55
X82.296Y-85.09
X82.296Y-87.63
X82.296Y-92.71
X82.296Y-95.25
X82.296Y-97.79
X82.296Y-100.33
X82.296Y-102.87
X82.296Y-105.41
X82.296Y-107.95
X82.296Y-110.49
X82.296Y-113.03
X82.296Y-115.57
X82.296Y-118.11
X82.296Y-120.65
X82.296Y-123.19
X82.296Y-125.73
X82.296Y-128.27
X82.296Y-130.81
X82.296Y-133.35
X82.296Y-135.89
X82.296Y-138.43
X82.296Y-140.97
X82.296Y-143.51
X82.296Y-146.05
X82.296Y-148.59
X82.296Y-151.13
X82.296Y-153.67
X84.328Y-58.42
X84.328Y-60.96
X84.328Y-63.5
X84.328Y-66.04
X84.328Y-68.58
X84.328Y-71.12
X84.328Y-73.66
X84.328Y-76.2
X84.328Y-78.74
X84.328Y-81.28
X84.328Y-83.82
X84.328Y-86.36
X84.328Y-91.44
X84.328Y-93.98
X84.328Y-96.52
X84.328Y-99.06
X84.328Y-101.6
X84.328Y-104.14
X84.328Y-106.68
X84.328Y-109.22
X84.328Y-111.76
X84.328Y-114.3
X84.328Y-116.84
X84.328Y-119.38
X84.328Y-121.92
X84.328Y-124.46
X84.328Y-127.0
X84.328Y-129.54
X84.328Y-132.08
X84.328Y-134.62
X84.328Y-137.16
X84.328Y-139.7
X84.328Y-142.24
X84.328Y-144.78
X84.328Y-147.32
X84.328Y-149.86
X84.328Y-152.4
X86.36Y-57.15
X86.36Y-59.69
X86.36Y-62.23
X86.36Y-64.77
X86.36Y-67.31
X86.36Y-69.85
X86.36Y-72.39
X86.36Y-74.93
X86.36Y-77.47
X86.36Y-80.01
X86.36Y-82.55
X86.36Y-85.09
X86.36Y-87.63
X86.36Y-92.71
X86.36Y-95.25
X86.36Y-97.79
X86.36Y-100.33
X86.36Y-102.87
X86.36Y-105.41
X86.36Y-107.95
X86.36Y-110.49
X86.36Y-113.03
X86.36Y-115.57
X86.36Y-118.11
X86.36Y-120.65
X86.36Y-123.19
X86.36Y-125.73
X86.36Y-128.27
X86.36Y-130.81
X86.36Y-133.35
X86.36Y-135.89
X86.36Y-138.43
X86.36Y-140.97
X86.36Y-143.51
X86.36Y-146.05
X86.36Y-148.59
X86.36Y-151.13
X86.36Y-153.67
T3
X141.605Y-84.455
X143.401Y-82.659
X145.415Y-63.5
X145.415Y-66.04
X145.415Y-68.58
X145.415Y-71.12
X145.415Y-73.66
X145.415Y-76.2
T0
M30
